<mxfile host="65bd71144e">
    <diagram id="5376sdKJ-PVG1L80QGkr" name="SQL ERD">
        <mxGraphModel dx="4470" dy="2335" grid="1" gridSize="10" guides="1" tooltips="1" connect="1" arrows="1" fold="1" page="0" pageScale="1" pageWidth="850" pageHeight="1100" background="#FFFFFF" math="0" shadow="0">
            <root>
                <mxCell id="0"/>
                <mxCell id="1" parent="0"/>
                <UserObject label="" lucidchartObjectId="zA._Ony1s0Xp" id="35">
                    <mxCell style="html=1;jettySize=18;whiteSpace=wrap;fontSize=13;strokeColor=#ffe342;strokeOpacity=100;strokeWidth=2.3;rounded=1;arcSize=24;edgeStyle=orthogonalEdgeStyle;startArrow=ERmany;startSize=10;endArrow=ERmany;endSize=10;exitX=0.5;exitY=1.007;exitPerimeter=0;entryX=1.002;entryY=0.118;entryPerimeter=0;" parent="1" edge="1">
                        <mxGeometry width="100" height="100" relative="1" as="geometry">
                            <Array as="points"/>
                            <mxPoint x="1410.42" y="248.86800000000005" as="targetPoint"/>
                        </mxGeometry>
                    </mxCell>
                </UserObject>
                <mxCell id="97ya8nI3-TbT8D8gCpiC-35" value="`Actors`" style="shape=table;startSize=30;container=1;collapsible=1;childLayout=tableLayout;fixedRows=1;rowLines=0;fontStyle=1;align=center;resizeLast=1;rounded=1;fillColor=#76608a;strokeColor=#432D57;shadow=0;fontColor=#ffffff;" vertex="1" parent="1">
                    <mxGeometry x="-610" width="210" height="90" as="geometry"/>
                </mxCell>
                <mxCell id="97ya8nI3-TbT8D8gCpiC-36" value="" style="shape=tableRow;horizontal=0;startSize=0;swimlaneHead=0;swimlaneBody=0;fillColor=#e1d5e7;collapsible=0;dropTarget=0;points=[[0,0.5],[1,0.5]];portConstraint=eastwest;top=0;left=0;right=0;bottom=1;rounded=1;strokeColor=#9673a6;shadow=0;fontColor=#0d0d0d;fontStyle=1;" vertex="1" parent="97ya8nI3-TbT8D8gCpiC-35">
                    <mxGeometry y="30" width="210" height="30" as="geometry"/>
                </mxCell>
                <mxCell id="97ya8nI3-TbT8D8gCpiC-37" value="PK" style="shape=partialRectangle;overflow=hidden;connectable=0;fillColor=#e1d5e7;top=0;left=0;bottom=0;right=0;fontStyle=1;rounded=1;strokeColor=#9673a6;shadow=0;fontColor=#0d0d0d;" vertex="1" parent="97ya8nI3-TbT8D8gCpiC-36">
                    <mxGeometry width="30" height="30" as="geometry">
                        <mxRectangle width="30" height="30" as="alternateBounds"/>
                    </mxGeometry>
                </mxCell>
                <mxCell id="97ya8nI3-TbT8D8gCpiC-38" value="`Id` int(11) NOT NULL" style="shape=partialRectangle;overflow=hidden;connectable=0;fillColor=#e1d5e7;align=left;top=0;left=0;bottom=0;right=0;spacingLeft=6;fontStyle=5;rounded=1;strokeColor=#9673a6;shadow=0;fontColor=#0d0d0d;" vertex="1" parent="97ya8nI3-TbT8D8gCpiC-36">
                    <mxGeometry x="30" width="180" height="30" as="geometry">
                        <mxRectangle width="180" height="30" as="alternateBounds"/>
                    </mxGeometry>
                </mxCell>
                <mxCell id="97ya8nI3-TbT8D8gCpiC-39" value="" style="shape=tableRow;horizontal=0;startSize=0;swimlaneHead=0;swimlaneBody=0;fillColor=#e1d5e7;collapsible=0;dropTarget=0;points=[[0,0.5],[1,0.5]];portConstraint=eastwest;top=0;left=0;right=0;bottom=0;rounded=1;strokeColor=#9673a6;shadow=0;fontColor=#0d0d0d;fontStyle=1;" vertex="1" parent="97ya8nI3-TbT8D8gCpiC-35">
                    <mxGeometry y="60" width="210" height="30" as="geometry"/>
                </mxCell>
                <mxCell id="97ya8nI3-TbT8D8gCpiC-40" value="" style="shape=partialRectangle;overflow=hidden;connectable=0;fillColor=#e1d5e7;top=0;left=0;bottom=0;right=0;rounded=1;strokeColor=#9673a6;shadow=0;fontColor=#0d0d0d;fontStyle=1;" vertex="1" parent="97ya8nI3-TbT8D8gCpiC-39">
                    <mxGeometry width="30" height="30" as="geometry">
                        <mxRectangle width="30" height="30" as="alternateBounds"/>
                    </mxGeometry>
                </mxCell>
                <mxCell id="97ya8nI3-TbT8D8gCpiC-41" value="`Name` text DEFAULT NULL" style="shape=partialRectangle;overflow=hidden;connectable=0;fillColor=#e1d5e7;align=left;top=0;left=0;bottom=0;right=0;spacingLeft=6;rounded=1;strokeColor=#9673a6;shadow=0;fontColor=#0d0d0d;fontStyle=1;" vertex="1" parent="97ya8nI3-TbT8D8gCpiC-39">
                    <mxGeometry x="30" width="180" height="30" as="geometry">
                        <mxRectangle width="180" height="30" as="alternateBounds"/>
                    </mxGeometry>
                </mxCell>
                <mxCell id="97ya8nI3-TbT8D8gCpiC-42" value="`Admin`" style="shape=table;startSize=30;container=1;collapsible=1;childLayout=tableLayout;fixedRows=1;rowLines=0;fontStyle=1;align=center;resizeLast=1;rounded=1;fillColor=#f0a30a;strokeColor=#BD7000;shadow=0;fontColor=#0d0d0d;" vertex="1" parent="1">
                    <mxGeometry x="240" y="-420" width="210" height="60" as="geometry"/>
                </mxCell>
                <mxCell id="97ya8nI3-TbT8D8gCpiC-43" value="" style="shape=tableRow;horizontal=0;startSize=0;swimlaneHead=0;swimlaneBody=0;fillColor=#ffe6cc;collapsible=0;dropTarget=0;points=[[0,0.5],[1,0.5]];portConstraint=eastwest;top=0;left=0;right=0;bottom=1;rounded=1;strokeColor=#d79b00;shadow=0;fontStyle=1;fontColor=#0d0d0d;" vertex="1" parent="97ya8nI3-TbT8D8gCpiC-42">
                    <mxGeometry y="30" width="210" height="30" as="geometry"/>
                </mxCell>
                <mxCell id="97ya8nI3-TbT8D8gCpiC-44" value="PK" style="shape=partialRectangle;overflow=hidden;connectable=0;fillColor=#ffe6cc;top=0;left=0;bottom=0;right=0;fontStyle=1;rounded=1;strokeColor=#d79b00;shadow=0;fontColor=#0d0d0d;" vertex="1" parent="97ya8nI3-TbT8D8gCpiC-43">
                    <mxGeometry width="30" height="30" as="geometry">
                        <mxRectangle width="30" height="30" as="alternateBounds"/>
                    </mxGeometry>
                </mxCell>
                <mxCell id="97ya8nI3-TbT8D8gCpiC-45" value="`User_id` int(11) NOT NULL" style="shape=partialRectangle;overflow=hidden;connectable=0;fillColor=#ffe6cc;align=left;top=0;left=0;bottom=0;right=0;spacingLeft=6;fontStyle=5;rounded=1;strokeColor=#d79b00;shadow=0;fontColor=#0d0d0d;" vertex="1" parent="97ya8nI3-TbT8D8gCpiC-43">
                    <mxGeometry x="30" width="180" height="30" as="geometry">
                        <mxRectangle width="180" height="30" as="alternateBounds"/>
                    </mxGeometry>
                </mxCell>
                <mxCell id="97ya8nI3-TbT8D8gCpiC-46" value="`Director`" style="shape=table;startSize=30;container=1;collapsible=1;childLayout=tableLayout;fixedRows=1;rowLines=0;fontStyle=1;align=center;resizeLast=1;rounded=1;fillColor=#76608a;strokeColor=#432D57;shadow=0;fontColor=#ffffff;" vertex="1" parent="1">
                    <mxGeometry x="-880" width="210" height="90" as="geometry"/>
                </mxCell>
                <mxCell id="97ya8nI3-TbT8D8gCpiC-47" value="" style="shape=tableRow;horizontal=0;startSize=0;swimlaneHead=0;swimlaneBody=0;fillColor=#e1d5e7;collapsible=0;dropTarget=0;points=[[0,0.5],[1,0.5]];portConstraint=eastwest;top=0;left=0;right=0;bottom=1;rounded=1;strokeColor=#9673a6;shadow=0;fontColor=#0d0d0d;fontStyle=1;" vertex="1" parent="97ya8nI3-TbT8D8gCpiC-46">
                    <mxGeometry y="30" width="210" height="30" as="geometry"/>
                </mxCell>
                <mxCell id="97ya8nI3-TbT8D8gCpiC-48" value="PK" style="shape=partialRectangle;overflow=hidden;connectable=0;fillColor=#e1d5e7;top=0;left=0;bottom=0;right=0;fontStyle=1;rounded=1;strokeColor=#9673a6;shadow=0;fontColor=#0d0d0d;" vertex="1" parent="97ya8nI3-TbT8D8gCpiC-47">
                    <mxGeometry width="30" height="30" as="geometry">
                        <mxRectangle width="30" height="30" as="alternateBounds"/>
                    </mxGeometry>
                </mxCell>
                <mxCell id="97ya8nI3-TbT8D8gCpiC-49" value="`Id` int(11) NOT NULL" style="shape=partialRectangle;overflow=hidden;connectable=0;fillColor=#e1d5e7;align=left;top=0;left=0;bottom=0;right=0;spacingLeft=6;fontStyle=5;rounded=1;strokeColor=#9673a6;shadow=0;fontColor=#0d0d0d;" vertex="1" parent="97ya8nI3-TbT8D8gCpiC-47">
                    <mxGeometry x="30" width="180" height="30" as="geometry">
                        <mxRectangle width="180" height="30" as="alternateBounds"/>
                    </mxGeometry>
                </mxCell>
                <mxCell id="97ya8nI3-TbT8D8gCpiC-50" value="" style="shape=tableRow;horizontal=0;startSize=0;swimlaneHead=0;swimlaneBody=0;fillColor=#e1d5e7;collapsible=0;dropTarget=0;points=[[0,0.5],[1,0.5]];portConstraint=eastwest;top=0;left=0;right=0;bottom=0;rounded=1;strokeColor=#9673a6;shadow=0;fontColor=#0d0d0d;fontStyle=1;" vertex="1" parent="97ya8nI3-TbT8D8gCpiC-46">
                    <mxGeometry y="60" width="210" height="30" as="geometry"/>
                </mxCell>
                <mxCell id="97ya8nI3-TbT8D8gCpiC-51" value="" style="shape=partialRectangle;overflow=hidden;connectable=0;fillColor=#e1d5e7;top=0;left=0;bottom=0;right=0;rounded=1;strokeColor=#9673a6;shadow=0;fontColor=#0d0d0d;fontStyle=1;" vertex="1" parent="97ya8nI3-TbT8D8gCpiC-50">
                    <mxGeometry width="30" height="30" as="geometry">
                        <mxRectangle width="30" height="30" as="alternateBounds"/>
                    </mxGeometry>
                </mxCell>
                <mxCell id="97ya8nI3-TbT8D8gCpiC-52" value="`Name` text DEFAULT NULL" style="shape=partialRectangle;overflow=hidden;connectable=0;fillColor=#e1d5e7;align=left;top=0;left=0;bottom=0;right=0;spacingLeft=6;rounded=1;strokeColor=#9673a6;shadow=0;fontColor=#0d0d0d;fontStyle=1;" vertex="1" parent="97ya8nI3-TbT8D8gCpiC-50">
                    <mxGeometry x="30" width="180" height="30" as="geometry">
                        <mxRectangle width="180" height="30" as="alternateBounds"/>
                    </mxGeometry>
                </mxCell>
                <mxCell id="97ya8nI3-TbT8D8gCpiC-53" value="`Genre`" style="shape=table;startSize=30;container=1;collapsible=1;childLayout=tableLayout;fixedRows=1;rowLines=0;fontStyle=1;align=center;resizeLast=1;rounded=1;fillColor=#76608a;strokeColor=#432D57;shadow=0;fontColor=#ffffff;" vertex="1" parent="1">
                    <mxGeometry x="-1250" y="-160" width="210" height="90" as="geometry"/>
                </mxCell>
                <mxCell id="97ya8nI3-TbT8D8gCpiC-54" value="" style="shape=tableRow;horizontal=0;startSize=0;swimlaneHead=0;swimlaneBody=0;fillColor=#e1d5e7;collapsible=0;dropTarget=0;points=[[0,0.5],[1,0.5]];portConstraint=eastwest;top=0;left=0;right=0;bottom=1;rounded=1;strokeColor=#9673a6;shadow=0;fontColor=#0d0d0d;fontStyle=1;" vertex="1" parent="97ya8nI3-TbT8D8gCpiC-53">
                    <mxGeometry y="30" width="210" height="30" as="geometry"/>
                </mxCell>
                <mxCell id="97ya8nI3-TbT8D8gCpiC-55" value="PK" style="shape=partialRectangle;overflow=hidden;connectable=0;fillColor=#e1d5e7;top=0;left=0;bottom=0;right=0;fontStyle=1;rounded=1;strokeColor=#9673a6;shadow=0;fontColor=#0d0d0d;" vertex="1" parent="97ya8nI3-TbT8D8gCpiC-54">
                    <mxGeometry width="30" height="30" as="geometry">
                        <mxRectangle width="30" height="30" as="alternateBounds"/>
                    </mxGeometry>
                </mxCell>
                <mxCell id="97ya8nI3-TbT8D8gCpiC-56" value="`Id` int(11) NOT NULL" style="shape=partialRectangle;overflow=hidden;connectable=0;fillColor=#e1d5e7;align=left;top=0;left=0;bottom=0;right=0;spacingLeft=6;fontStyle=5;rounded=1;strokeColor=#9673a6;shadow=0;fontColor=#0d0d0d;" vertex="1" parent="97ya8nI3-TbT8D8gCpiC-54">
                    <mxGeometry x="30" width="180" height="30" as="geometry">
                        <mxRectangle width="180" height="30" as="alternateBounds"/>
                    </mxGeometry>
                </mxCell>
                <mxCell id="97ya8nI3-TbT8D8gCpiC-57" value="" style="shape=tableRow;horizontal=0;startSize=0;swimlaneHead=0;swimlaneBody=0;fillColor=#e1d5e7;collapsible=0;dropTarget=0;points=[[0,0.5],[1,0.5]];portConstraint=eastwest;top=0;left=0;right=0;bottom=0;rounded=1;strokeColor=#9673a6;shadow=0;fontColor=#0d0d0d;fontStyle=1;" vertex="1" parent="97ya8nI3-TbT8D8gCpiC-53">
                    <mxGeometry y="60" width="210" height="30" as="geometry"/>
                </mxCell>
                <mxCell id="97ya8nI3-TbT8D8gCpiC-58" value="" style="shape=partialRectangle;overflow=hidden;connectable=0;fillColor=#e1d5e7;top=0;left=0;bottom=0;right=0;rounded=1;strokeColor=#9673a6;shadow=0;fontColor=#0d0d0d;fontStyle=1;" vertex="1" parent="97ya8nI3-TbT8D8gCpiC-57">
                    <mxGeometry width="30" height="30" as="geometry">
                        <mxRectangle width="30" height="30" as="alternateBounds"/>
                    </mxGeometry>
                </mxCell>
                <mxCell id="97ya8nI3-TbT8D8gCpiC-59" value="`Name` text DEFAULT NULL" style="shape=partialRectangle;overflow=hidden;connectable=0;fillColor=#e1d5e7;align=left;top=0;left=0;bottom=0;right=0;spacingLeft=6;rounded=1;strokeColor=#9673a6;shadow=0;fontColor=#0d0d0d;fontStyle=1;" vertex="1" parent="97ya8nI3-TbT8D8gCpiC-57">
                    <mxGeometry x="30" width="180" height="30" as="geometry">
                        <mxRectangle width="180" height="30" as="alternateBounds"/>
                    </mxGeometry>
                </mxCell>
                <mxCell id="97ya8nI3-TbT8D8gCpiC-60" value="`LoggedUser`" style="shape=table;startSize=30;container=1;collapsible=1;childLayout=tableLayout;fixedRows=1;rowLines=0;fontStyle=1;align=center;resizeLast=1;rounded=1;fillColor=#f0a30a;strokeColor=#BD7000;shadow=0;fontColor=#0d0d0d;" vertex="1" parent="1">
                    <mxGeometry x="240" y="-300" width="210" height="60" as="geometry"/>
                </mxCell>
                <mxCell id="97ya8nI3-TbT8D8gCpiC-61" value="" style="shape=tableRow;horizontal=0;startSize=0;swimlaneHead=0;swimlaneBody=0;fillColor=#ffe6cc;collapsible=0;dropTarget=0;points=[[0,0.5],[1,0.5]];portConstraint=eastwest;top=0;left=0;right=0;bottom=1;rounded=1;strokeColor=#d79b00;shadow=0;fontStyle=1;fontColor=#0d0d0d;" vertex="1" parent="97ya8nI3-TbT8D8gCpiC-60">
                    <mxGeometry y="30" width="210" height="30" as="geometry"/>
                </mxCell>
                <mxCell id="97ya8nI3-TbT8D8gCpiC-62" value="PK" style="shape=partialRectangle;overflow=hidden;connectable=0;fillColor=#ffe6cc;top=0;left=0;bottom=0;right=0;fontStyle=1;rounded=1;strokeColor=#d79b00;shadow=0;fontColor=#0d0d0d;" vertex="1" parent="97ya8nI3-TbT8D8gCpiC-61">
                    <mxGeometry width="30" height="30" as="geometry">
                        <mxRectangle width="30" height="30" as="alternateBounds"/>
                    </mxGeometry>
                </mxCell>
                <mxCell id="97ya8nI3-TbT8D8gCpiC-63" value="`Userid` int(11) NOT NULL" style="shape=partialRectangle;overflow=hidden;connectable=0;fillColor=#ffe6cc;align=left;top=0;left=0;bottom=0;right=0;spacingLeft=6;fontStyle=5;rounded=1;strokeColor=#d79b00;shadow=0;fontColor=#0d0d0d;" vertex="1" parent="97ya8nI3-TbT8D8gCpiC-61">
                    <mxGeometry x="30" width="180" height="30" as="geometry">
                        <mxRectangle width="180" height="30" as="alternateBounds"/>
                    </mxGeometry>
                </mxCell>
                <mxCell id="97ya8nI3-TbT8D8gCpiC-64" value="`MovieGenre`" style="shape=table;startSize=30;container=1;collapsible=1;childLayout=tableLayout;fixedRows=1;rowLines=0;fontStyle=1;align=center;resizeLast=1;rounded=1;shadow=0;fillColor=#76608a;fontColor=#ffffff;strokeColor=#432D57;" vertex="1" parent="1">
                    <mxGeometry x="-1530" y="-420" width="570" height="210" as="geometry"/>
                </mxCell>
                <mxCell id="97ya8nI3-TbT8D8gCpiC-65" value="" style="shape=tableRow;horizontal=0;startSize=0;swimlaneHead=0;swimlaneBody=0;fillColor=#e1d5e7;collapsible=0;dropTarget=0;points=[[0,0.5],[1,0.5]];portConstraint=eastwest;top=0;left=0;right=0;bottom=0;rounded=1;strokeColor=#9673a6;shadow=0;fontColor=#0d0d0d;fontStyle=1;" vertex="1" parent="97ya8nI3-TbT8D8gCpiC-64">
                    <mxGeometry y="30" width="570" height="30" as="geometry"/>
                </mxCell>
                <mxCell id="97ya8nI3-TbT8D8gCpiC-66" value="" style="shape=partialRectangle;overflow=hidden;connectable=0;fillColor=#e1d5e7;top=0;left=0;bottom=0;right=0;rounded=1;strokeColor=#9673a6;shadow=0;fontColor=#0d0d0d;fontStyle=1;" vertex="1" parent="97ya8nI3-TbT8D8gCpiC-65">
                    <mxGeometry width="30" height="30" as="geometry">
                        <mxRectangle width="30" height="30" as="alternateBounds"/>
                    </mxGeometry>
                </mxCell>
                <mxCell id="97ya8nI3-TbT8D8gCpiC-67" value="`Genre_id` int(11) DEFAULT NULL" style="shape=partialRectangle;overflow=hidden;connectable=0;fillColor=#e1d5e7;align=left;top=0;left=0;bottom=0;right=0;spacingLeft=6;rounded=1;strokeColor=#9673a6;shadow=0;fontColor=#0d0d0d;fontStyle=1;" vertex="1" parent="97ya8nI3-TbT8D8gCpiC-65">
                    <mxGeometry x="30" width="540" height="30" as="geometry">
                        <mxRectangle width="540" height="30" as="alternateBounds"/>
                    </mxGeometry>
                </mxCell>
                <mxCell id="97ya8nI3-TbT8D8gCpiC-68" value="" style="shape=tableRow;horizontal=0;startSize=0;swimlaneHead=0;swimlaneBody=0;fillColor=#e1d5e7;collapsible=0;dropTarget=0;points=[[0,0.5],[1,0.5]];portConstraint=eastwest;top=0;left=0;right=0;bottom=0;rounded=1;strokeColor=#9673a6;shadow=0;fontColor=#0d0d0d;fontStyle=1;" vertex="1" parent="97ya8nI3-TbT8D8gCpiC-64">
                    <mxGeometry y="60" width="570" height="30" as="geometry"/>
                </mxCell>
                <mxCell id="97ya8nI3-TbT8D8gCpiC-69" value="" style="shape=partialRectangle;overflow=hidden;connectable=0;fillColor=#e1d5e7;top=0;left=0;bottom=0;right=0;rounded=1;strokeColor=#9673a6;shadow=0;fontColor=#0d0d0d;fontStyle=1;" vertex="1" parent="97ya8nI3-TbT8D8gCpiC-68">
                    <mxGeometry width="30" height="30" as="geometry">
                        <mxRectangle width="30" height="30" as="alternateBounds"/>
                    </mxGeometry>
                </mxCell>
                <mxCell id="97ya8nI3-TbT8D8gCpiC-70" value="`Movie_id` int(11) DEFAULT NULL" style="shape=partialRectangle;overflow=hidden;connectable=0;fillColor=#e1d5e7;align=left;top=0;left=0;bottom=0;right=0;spacingLeft=6;rounded=1;strokeColor=#9673a6;shadow=0;fontColor=#0d0d0d;fontStyle=1;" vertex="1" parent="97ya8nI3-TbT8D8gCpiC-68">
                    <mxGeometry x="30" width="540" height="30" as="geometry">
                        <mxRectangle width="540" height="30" as="alternateBounds"/>
                    </mxGeometry>
                </mxCell>
                <mxCell id="97ya8nI3-TbT8D8gCpiC-71" value="" style="shape=tableRow;horizontal=0;startSize=0;swimlaneHead=0;swimlaneBody=0;fillColor=#e1d5e7;collapsible=0;dropTarget=0;points=[[0,0.5],[1,0.5]];portConstraint=eastwest;top=0;left=0;right=0;bottom=0;rounded=1;strokeColor=#9673a6;shadow=0;fontColor=#0d0d0d;fontStyle=1;" vertex="1" parent="97ya8nI3-TbT8D8gCpiC-64">
                    <mxGeometry y="90" width="570" height="30" as="geometry"/>
                </mxCell>
                <mxCell id="97ya8nI3-TbT8D8gCpiC-72" value="" style="shape=partialRectangle;overflow=hidden;connectable=0;fillColor=#e1d5e7;top=0;left=0;bottom=0;right=0;rounded=1;strokeColor=#9673a6;shadow=0;fontColor=#0d0d0d;fontStyle=1;" vertex="1" parent="97ya8nI3-TbT8D8gCpiC-71">
                    <mxGeometry width="30" height="30" as="geometry">
                        <mxRectangle width="30" height="30" as="alternateBounds"/>
                    </mxGeometry>
                </mxCell>
                <mxCell id="97ya8nI3-TbT8D8gCpiC-73" value="KEY `Genre_id` (`Genre_id`)" style="shape=partialRectangle;overflow=hidden;connectable=0;fillColor=#e1d5e7;align=left;top=0;left=0;bottom=0;right=0;spacingLeft=6;rounded=1;strokeColor=#9673a6;shadow=0;fontColor=#0d0d0d;fontStyle=1;" vertex="1" parent="97ya8nI3-TbT8D8gCpiC-71">
                    <mxGeometry x="30" width="540" height="30" as="geometry">
                        <mxRectangle width="540" height="30" as="alternateBounds"/>
                    </mxGeometry>
                </mxCell>
                <mxCell id="97ya8nI3-TbT8D8gCpiC-74" value="" style="shape=tableRow;horizontal=0;startSize=0;swimlaneHead=0;swimlaneBody=0;fillColor=#e1d5e7;collapsible=0;dropTarget=0;points=[[0,0.5],[1,0.5]];portConstraint=eastwest;top=0;left=0;right=0;bottom=0;rounded=1;strokeColor=#9673a6;shadow=0;fontColor=#0d0d0d;fontStyle=1;" vertex="1" parent="97ya8nI3-TbT8D8gCpiC-64">
                    <mxGeometry y="120" width="570" height="30" as="geometry"/>
                </mxCell>
                <mxCell id="97ya8nI3-TbT8D8gCpiC-75" value="" style="shape=partialRectangle;overflow=hidden;connectable=0;fillColor=#e1d5e7;top=0;left=0;bottom=0;right=0;rounded=1;strokeColor=#9673a6;shadow=0;fontColor=#0d0d0d;fontStyle=1;" vertex="1" parent="97ya8nI3-TbT8D8gCpiC-74">
                    <mxGeometry width="30" height="30" as="geometry">
                        <mxRectangle width="30" height="30" as="alternateBounds"/>
                    </mxGeometry>
                </mxCell>
                <mxCell id="97ya8nI3-TbT8D8gCpiC-76" value="KEY `Movie_id` (`Movie_id`)" style="shape=partialRectangle;overflow=hidden;connectable=0;fillColor=#e1d5e7;align=left;top=0;left=0;bottom=0;right=0;spacingLeft=6;rounded=1;strokeColor=#9673a6;shadow=0;fontColor=#0d0d0d;fontStyle=1;" vertex="1" parent="97ya8nI3-TbT8D8gCpiC-74">
                    <mxGeometry x="30" width="540" height="30" as="geometry">
                        <mxRectangle width="540" height="30" as="alternateBounds"/>
                    </mxGeometry>
                </mxCell>
                <mxCell id="97ya8nI3-TbT8D8gCpiC-77" value="" style="shape=tableRow;horizontal=0;startSize=0;swimlaneHead=0;swimlaneBody=0;fillColor=#e1d5e7;collapsible=0;dropTarget=0;points=[[0,0.5],[1,0.5]];portConstraint=eastwest;top=0;left=0;right=0;bottom=0;rounded=1;strokeColor=#9673a6;shadow=0;fontColor=#0d0d0d;fontStyle=1;" vertex="1" parent="97ya8nI3-TbT8D8gCpiC-64">
                    <mxGeometry y="150" width="570" height="30" as="geometry"/>
                </mxCell>
                <mxCell id="97ya8nI3-TbT8D8gCpiC-78" value="" style="shape=partialRectangle;overflow=hidden;connectable=0;fillColor=#e1d5e7;top=0;left=0;bottom=0;right=0;rounded=1;strokeColor=#9673a6;shadow=0;fontColor=#0d0d0d;fontStyle=1;" vertex="1" parent="97ya8nI3-TbT8D8gCpiC-77">
                    <mxGeometry width="30" height="30" as="geometry">
                        <mxRectangle width="30" height="30" as="alternateBounds"/>
                    </mxGeometry>
                </mxCell>
                <mxCell id="97ya8nI3-TbT8D8gCpiC-79" value="CONSTRAINT `MovieGenre_ibfk_1` FOREIGN KEY (`Genre_id`) REFERENCES `Genre` (`Id`)" style="shape=partialRectangle;overflow=hidden;connectable=0;fillColor=#e1d5e7;align=left;top=0;left=0;bottom=0;right=0;spacingLeft=6;rounded=1;strokeColor=#9673a6;shadow=0;fontColor=#0d0d0d;fontStyle=1;" vertex="1" parent="97ya8nI3-TbT8D8gCpiC-77">
                    <mxGeometry x="30" width="540" height="30" as="geometry">
                        <mxRectangle width="540" height="30" as="alternateBounds"/>
                    </mxGeometry>
                </mxCell>
                <mxCell id="97ya8nI3-TbT8D8gCpiC-80" value="" style="shape=tableRow;horizontal=0;startSize=0;swimlaneHead=0;swimlaneBody=0;fillColor=#e1d5e7;collapsible=0;dropTarget=0;points=[[0,0.5],[1,0.5]];portConstraint=eastwest;top=0;left=0;right=0;bottom=0;rounded=1;strokeColor=#9673a6;shadow=0;fontColor=#0d0d0d;fontStyle=1;" vertex="1" parent="97ya8nI3-TbT8D8gCpiC-64">
                    <mxGeometry y="180" width="570" height="30" as="geometry"/>
                </mxCell>
                <mxCell id="97ya8nI3-TbT8D8gCpiC-81" value="" style="shape=partialRectangle;overflow=hidden;connectable=0;fillColor=#e1d5e7;top=0;left=0;bottom=0;right=0;rounded=1;strokeColor=#9673a6;shadow=0;fontColor=#0d0d0d;fontStyle=1;" vertex="1" parent="97ya8nI3-TbT8D8gCpiC-80">
                    <mxGeometry width="30" height="30" as="geometry">
                        <mxRectangle width="30" height="30" as="alternateBounds"/>
                    </mxGeometry>
                </mxCell>
                <mxCell id="97ya8nI3-TbT8D8gCpiC-82" value="CONSTRAINT `MovieGenre_ibfk_2` FOREIGN KEY (`Movie_id`) REFERENCES `Movies` (`Id`)" style="shape=partialRectangle;overflow=hidden;connectable=0;fillColor=#e1d5e7;align=left;top=0;left=0;bottom=0;right=0;spacingLeft=6;rounded=1;strokeColor=#9673a6;shadow=0;fontColor=#0d0d0d;fontStyle=1;" vertex="1" parent="97ya8nI3-TbT8D8gCpiC-80">
                    <mxGeometry x="30" width="540" height="30" as="geometry">
                        <mxRectangle width="540" height="30" as="alternateBounds"/>
                    </mxGeometry>
                </mxCell>
                <mxCell id="97ya8nI3-TbT8D8gCpiC-83" value="`Movies`" style="shape=table;startSize=30;container=1;collapsible=1;childLayout=tableLayout;fixedRows=1;rowLines=0;fontStyle=1;align=center;resizeLast=1;rounded=1;fillColor=#76608a;strokeColor=#432D57;shadow=0;fontColor=#ffffff;" vertex="1" parent="1">
                    <mxGeometry x="-850" y="-420" width="290" height="380" as="geometry"/>
                </mxCell>
                <mxCell id="97ya8nI3-TbT8D8gCpiC-84" value="" style="shape=tableRow;horizontal=0;startSize=0;swimlaneHead=0;swimlaneBody=0;fillColor=#e1d5e7;collapsible=0;dropTarget=0;points=[[0,0.5],[1,0.5]];portConstraint=eastwest;top=0;left=0;right=0;bottom=1;rounded=1;strokeColor=#9673a6;shadow=0;fontColor=#0d0d0d;fontStyle=1;" vertex="1" parent="97ya8nI3-TbT8D8gCpiC-83">
                    <mxGeometry y="30" width="290" height="30" as="geometry"/>
                </mxCell>
                <mxCell id="97ya8nI3-TbT8D8gCpiC-85" value="PK" style="shape=partialRectangle;overflow=hidden;connectable=0;fillColor=#e1d5e7;top=0;left=0;bottom=0;right=0;fontStyle=1;rounded=1;strokeColor=#9673a6;shadow=0;fontColor=#0d0d0d;" vertex="1" parent="97ya8nI3-TbT8D8gCpiC-84">
                    <mxGeometry width="30" height="30" as="geometry">
                        <mxRectangle width="30" height="30" as="alternateBounds"/>
                    </mxGeometry>
                </mxCell>
                <mxCell id="97ya8nI3-TbT8D8gCpiC-86" value="`Id` int(11) NOT NULL" style="shape=partialRectangle;overflow=hidden;connectable=0;fillColor=#e1d5e7;align=left;top=0;left=0;bottom=0;right=0;spacingLeft=6;fontStyle=5;rounded=1;strokeColor=#9673a6;shadow=0;fontColor=#0d0d0d;" vertex="1" parent="97ya8nI3-TbT8D8gCpiC-84">
                    <mxGeometry x="30" width="260" height="30" as="geometry">
                        <mxRectangle width="260" height="30" as="alternateBounds"/>
                    </mxGeometry>
                </mxCell>
                <mxCell id="97ya8nI3-TbT8D8gCpiC-87" value="" style="shape=tableRow;horizontal=0;startSize=0;swimlaneHead=0;swimlaneBody=0;fillColor=#e1d5e7;collapsible=0;dropTarget=0;points=[[0,0.5],[1,0.5]];portConstraint=eastwest;top=0;left=0;right=0;bottom=0;rounded=1;strokeColor=#9673a6;shadow=0;fontColor=#0d0d0d;fontStyle=1;" vertex="1" parent="97ya8nI3-TbT8D8gCpiC-83">
                    <mxGeometry y="60" width="290" height="30" as="geometry"/>
                </mxCell>
                <mxCell id="97ya8nI3-TbT8D8gCpiC-88" value="" style="shape=partialRectangle;overflow=hidden;connectable=0;fillColor=#e1d5e7;top=0;left=0;bottom=0;right=0;rounded=1;strokeColor=#9673a6;shadow=0;fontColor=#0d0d0d;fontStyle=1;" vertex="1" parent="97ya8nI3-TbT8D8gCpiC-87">
                    <mxGeometry width="30" height="30" as="geometry">
                        <mxRectangle width="30" height="30" as="alternateBounds"/>
                    </mxGeometry>
                </mxCell>
                <mxCell id="97ya8nI3-TbT8D8gCpiC-89" value="`Title` varchar(255) DEFAULT NULL" style="shape=partialRectangle;overflow=hidden;connectable=0;fillColor=#e1d5e7;align=left;top=0;left=0;bottom=0;right=0;spacingLeft=6;rounded=1;strokeColor=#9673a6;shadow=0;fontColor=#0d0d0d;fontStyle=1;" vertex="1" parent="97ya8nI3-TbT8D8gCpiC-87">
                    <mxGeometry x="30" width="260" height="30" as="geometry">
                        <mxRectangle width="260" height="30" as="alternateBounds"/>
                    </mxGeometry>
                </mxCell>
                <mxCell id="97ya8nI3-TbT8D8gCpiC-90" value="" style="shape=tableRow;horizontal=0;startSize=0;swimlaneHead=0;swimlaneBody=0;fillColor=#e1d5e7;collapsible=0;dropTarget=0;points=[[0,0.5],[1,0.5]];portConstraint=eastwest;top=0;left=0;right=0;bottom=0;rounded=1;strokeColor=#9673a6;shadow=0;fontColor=#0d0d0d;fontStyle=1;" vertex="1" parent="97ya8nI3-TbT8D8gCpiC-83">
                    <mxGeometry y="90" width="290" height="30" as="geometry"/>
                </mxCell>
                <mxCell id="97ya8nI3-TbT8D8gCpiC-91" value="" style="shape=partialRectangle;overflow=hidden;connectable=0;fillColor=#e1d5e7;top=0;left=0;bottom=0;right=0;rounded=1;strokeColor=#9673a6;shadow=0;fontColor=#0d0d0d;fontStyle=1;" vertex="1" parent="97ya8nI3-TbT8D8gCpiC-90">
                    <mxGeometry width="30" height="30" as="geometry">
                        <mxRectangle width="30" height="30" as="alternateBounds"/>
                    </mxGeometry>
                </mxCell>
                <mxCell id="97ya8nI3-TbT8D8gCpiC-92" value="`description` varchar(255) DEFAULT NULL" style="shape=partialRectangle;overflow=hidden;connectable=0;fillColor=#e1d5e7;align=left;top=0;left=0;bottom=0;right=0;spacingLeft=6;rounded=1;strokeColor=#9673a6;shadow=0;fontColor=#0d0d0d;fontStyle=1;" vertex="1" parent="97ya8nI3-TbT8D8gCpiC-90">
                    <mxGeometry x="30" width="260" height="30" as="geometry">
                        <mxRectangle width="260" height="30" as="alternateBounds"/>
                    </mxGeometry>
                </mxCell>
                <mxCell id="97ya8nI3-TbT8D8gCpiC-93" value="" style="shape=tableRow;horizontal=0;startSize=0;swimlaneHead=0;swimlaneBody=0;fillColor=#e1d5e7;collapsible=0;dropTarget=0;points=[[0,0.5],[1,0.5]];portConstraint=eastwest;top=0;left=0;right=0;bottom=0;rounded=1;strokeColor=#9673a6;shadow=0;fontColor=#0d0d0d;fontStyle=1;" vertex="1" parent="97ya8nI3-TbT8D8gCpiC-83">
                    <mxGeometry y="120" width="290" height="30" as="geometry"/>
                </mxCell>
                <mxCell id="97ya8nI3-TbT8D8gCpiC-94" value="" style="shape=partialRectangle;overflow=hidden;connectable=0;fillColor=#e1d5e7;top=0;left=0;bottom=0;right=0;rounded=1;strokeColor=#9673a6;shadow=0;fontColor=#0d0d0d;fontStyle=1;" vertex="1" parent="97ya8nI3-TbT8D8gCpiC-93">
                    <mxGeometry width="30" height="30" as="geometry">
                        <mxRectangle width="30" height="30" as="alternateBounds"/>
                    </mxGeometry>
                </mxCell>
                <mxCell id="97ya8nI3-TbT8D8gCpiC-95" value="`ratings` int(11) DEFAULT NULL" style="shape=partialRectangle;overflow=hidden;connectable=0;fillColor=#e1d5e7;align=left;top=0;left=0;bottom=0;right=0;spacingLeft=6;rounded=1;strokeColor=#9673a6;shadow=0;fontColor=#0d0d0d;fontStyle=1;" vertex="1" parent="97ya8nI3-TbT8D8gCpiC-93">
                    <mxGeometry x="30" width="260" height="30" as="geometry">
                        <mxRectangle width="260" height="30" as="alternateBounds"/>
                    </mxGeometry>
                </mxCell>
                <mxCell id="97ya8nI3-TbT8D8gCpiC-96" value="" style="shape=tableRow;horizontal=0;startSize=0;swimlaneHead=0;swimlaneBody=0;fillColor=#e1d5e7;collapsible=0;dropTarget=0;points=[[0,0.5],[1,0.5]];portConstraint=eastwest;top=0;left=0;right=0;bottom=0;rounded=1;strokeColor=#9673a6;shadow=0;fontColor=#0d0d0d;fontStyle=1;" vertex="1" parent="97ya8nI3-TbT8D8gCpiC-83">
                    <mxGeometry y="150" width="290" height="30" as="geometry"/>
                </mxCell>
                <mxCell id="97ya8nI3-TbT8D8gCpiC-97" value="" style="shape=partialRectangle;overflow=hidden;connectable=0;fillColor=#e1d5e7;top=0;left=0;bottom=0;right=0;rounded=1;strokeColor=#9673a6;shadow=0;fontColor=#0d0d0d;fontStyle=1;" vertex="1" parent="97ya8nI3-TbT8D8gCpiC-96">
                    <mxGeometry width="30" height="30" as="geometry">
                        <mxRectangle width="30" height="30" as="alternateBounds"/>
                    </mxGeometry>
                </mxCell>
                <mxCell id="97ya8nI3-TbT8D8gCpiC-98" value="`Genre` varchar(255) DEFAULT NULL" style="shape=partialRectangle;overflow=hidden;connectable=0;fillColor=#e1d5e7;align=left;top=0;left=0;bottom=0;right=0;spacingLeft=6;rounded=1;strokeColor=#9673a6;shadow=0;fontColor=#0d0d0d;fontStyle=1;" vertex="1" parent="97ya8nI3-TbT8D8gCpiC-96">
                    <mxGeometry x="30" width="260" height="30" as="geometry">
                        <mxRectangle width="260" height="30" as="alternateBounds"/>
                    </mxGeometry>
                </mxCell>
                <mxCell id="97ya8nI3-TbT8D8gCpiC-99" value="" style="shape=tableRow;horizontal=0;startSize=0;swimlaneHead=0;swimlaneBody=0;fillColor=#e1d5e7;collapsible=0;dropTarget=0;points=[[0,0.5],[1,0.5]];portConstraint=eastwest;top=0;left=0;right=0;bottom=0;rounded=1;strokeColor=#9673a6;shadow=0;fontColor=#0d0d0d;fontStyle=1;" vertex="1" parent="97ya8nI3-TbT8D8gCpiC-83">
                    <mxGeometry y="180" width="290" height="30" as="geometry"/>
                </mxCell>
                <mxCell id="97ya8nI3-TbT8D8gCpiC-100" value="" style="shape=partialRectangle;overflow=hidden;connectable=0;fillColor=#e1d5e7;top=0;left=0;bottom=0;right=0;rounded=1;strokeColor=#9673a6;shadow=0;fontColor=#0d0d0d;fontStyle=1;" vertex="1" parent="97ya8nI3-TbT8D8gCpiC-99">
                    <mxGeometry width="30" height="30" as="geometry">
                        <mxRectangle width="30" height="30" as="alternateBounds"/>
                    </mxGeometry>
                </mxCell>
                <mxCell id="97ya8nI3-TbT8D8gCpiC-101" value="`Director` varchar(255) DEFAULT NULL" style="shape=partialRectangle;overflow=hidden;connectable=0;fillColor=#e1d5e7;align=left;top=0;left=0;bottom=0;right=0;spacingLeft=6;rounded=1;strokeColor=#9673a6;shadow=0;fontColor=#0d0d0d;fontStyle=1;" vertex="1" parent="97ya8nI3-TbT8D8gCpiC-99">
                    <mxGeometry x="30" width="260" height="30" as="geometry">
                        <mxRectangle width="260" height="30" as="alternateBounds"/>
                    </mxGeometry>
                </mxCell>
                <mxCell id="97ya8nI3-TbT8D8gCpiC-102" value="" style="shape=tableRow;horizontal=0;startSize=0;swimlaneHead=0;swimlaneBody=0;fillColor=#e1d5e7;collapsible=0;dropTarget=0;points=[[0,0.5],[1,0.5]];portConstraint=eastwest;top=0;left=0;right=0;bottom=0;rounded=1;strokeColor=#9673a6;shadow=0;fontColor=#0d0d0d;fontStyle=1;" vertex="1" parent="97ya8nI3-TbT8D8gCpiC-83">
                    <mxGeometry y="210" width="290" height="30" as="geometry"/>
                </mxCell>
                <mxCell id="97ya8nI3-TbT8D8gCpiC-103" value="" style="shape=partialRectangle;overflow=hidden;connectable=0;fillColor=#e1d5e7;top=0;left=0;bottom=0;right=0;rounded=1;strokeColor=#9673a6;shadow=0;fontColor=#0d0d0d;fontStyle=1;" vertex="1" parent="97ya8nI3-TbT8D8gCpiC-102">
                    <mxGeometry width="30" height="30" as="geometry">
                        <mxRectangle width="30" height="30" as="alternateBounds"/>
                    </mxGeometry>
                </mxCell>
                <mxCell id="97ya8nI3-TbT8D8gCpiC-104" value="`Actor` varchar(255) DEFAULT NULL" style="shape=partialRectangle;overflow=hidden;connectable=0;fillColor=#e1d5e7;align=left;top=0;left=0;bottom=0;right=0;spacingLeft=6;rounded=1;strokeColor=#9673a6;shadow=0;fontColor=#0d0d0d;fontStyle=1;" vertex="1" parent="97ya8nI3-TbT8D8gCpiC-102">
                    <mxGeometry x="30" width="260" height="30" as="geometry">
                        <mxRectangle width="260" height="30" as="alternateBounds"/>
                    </mxGeometry>
                </mxCell>
                <mxCell id="97ya8nI3-TbT8D8gCpiC-105" value="" style="shape=tableRow;horizontal=0;startSize=0;swimlaneHead=0;swimlaneBody=0;fillColor=#e1d5e7;collapsible=0;dropTarget=0;points=[[0,0.5],[1,0.5]];portConstraint=eastwest;top=0;left=0;right=0;bottom=0;rounded=1;strokeColor=#9673a6;shadow=0;fontColor=#0d0d0d;fontStyle=1;" vertex="1" parent="97ya8nI3-TbT8D8gCpiC-83">
                    <mxGeometry y="240" width="290" height="30" as="geometry"/>
                </mxCell>
                <mxCell id="97ya8nI3-TbT8D8gCpiC-106" value="" style="shape=partialRectangle;overflow=hidden;connectable=0;fillColor=#e1d5e7;top=0;left=0;bottom=0;right=0;rounded=1;strokeColor=#9673a6;shadow=0;fontColor=#0d0d0d;fontStyle=1;" vertex="1" parent="97ya8nI3-TbT8D8gCpiC-105">
                    <mxGeometry width="30" height="30" as="geometry">
                        <mxRectangle width="30" height="30" as="alternateBounds"/>
                    </mxGeometry>
                </mxCell>
                <mxCell id="97ya8nI3-TbT8D8gCpiC-107" value="`language` varchar(255) DEFAULT NULL" style="shape=partialRectangle;overflow=hidden;connectable=0;fillColor=#e1d5e7;align=left;top=0;left=0;bottom=0;right=0;spacingLeft=6;rounded=1;strokeColor=#9673a6;shadow=0;fontColor=#0d0d0d;fontStyle=1;" vertex="1" parent="97ya8nI3-TbT8D8gCpiC-105">
                    <mxGeometry x="30" width="260" height="30" as="geometry">
                        <mxRectangle width="260" height="30" as="alternateBounds"/>
                    </mxGeometry>
                </mxCell>
                <mxCell id="97ya8nI3-TbT8D8gCpiC-108" value="" style="shape=tableRow;horizontal=0;startSize=0;swimlaneHead=0;swimlaneBody=0;fillColor=#e1d5e7;collapsible=0;dropTarget=0;points=[[0,0.5],[1,0.5]];portConstraint=eastwest;top=0;left=0;right=0;bottom=0;rounded=1;strokeColor=#9673a6;shadow=0;fontColor=#0d0d0d;fontStyle=1;" vertex="1" parent="97ya8nI3-TbT8D8gCpiC-83">
                    <mxGeometry y="270" width="290" height="30" as="geometry"/>
                </mxCell>
                <mxCell id="97ya8nI3-TbT8D8gCpiC-109" value="" style="shape=partialRectangle;overflow=hidden;connectable=0;fillColor=#e1d5e7;top=0;left=0;bottom=0;right=0;rounded=1;strokeColor=#9673a6;shadow=0;fontColor=#0d0d0d;fontStyle=1;" vertex="1" parent="97ya8nI3-TbT8D8gCpiC-108">
                    <mxGeometry width="30" height="30" as="geometry">
                        <mxRectangle width="30" height="30" as="alternateBounds"/>
                    </mxGeometry>
                </mxCell>
                <mxCell id="97ya8nI3-TbT8D8gCpiC-110" value="`release_date` int(11) DEFAULT NULL" style="shape=partialRectangle;overflow=hidden;connectable=0;fillColor=#e1d5e7;align=left;top=0;left=0;bottom=0;right=0;spacingLeft=6;rounded=1;strokeColor=#9673a6;shadow=0;fontColor=#0d0d0d;fontStyle=1;" vertex="1" parent="97ya8nI3-TbT8D8gCpiC-108">
                    <mxGeometry x="30" width="260" height="30" as="geometry">
                        <mxRectangle width="260" height="30" as="alternateBounds"/>
                    </mxGeometry>
                </mxCell>
                <mxCell id="97ya8nI3-TbT8D8gCpiC-111" value="" style="shape=tableRow;horizontal=0;startSize=0;swimlaneHead=0;swimlaneBody=0;fillColor=#e1d5e7;collapsible=0;dropTarget=0;points=[[0,0.5],[1,0.5]];portConstraint=eastwest;top=0;left=0;right=0;bottom=0;rounded=1;strokeColor=#9673a6;shadow=0;fontColor=#0d0d0d;fontStyle=1;" vertex="1" parent="97ya8nI3-TbT8D8gCpiC-83">
                    <mxGeometry y="300" width="290" height="30" as="geometry"/>
                </mxCell>
                <mxCell id="97ya8nI3-TbT8D8gCpiC-112" value="" style="shape=partialRectangle;overflow=hidden;connectable=0;fillColor=#e1d5e7;top=0;left=0;bottom=0;right=0;rounded=1;strokeColor=#9673a6;shadow=0;fontColor=#0d0d0d;fontStyle=1;" vertex="1" parent="97ya8nI3-TbT8D8gCpiC-111">
                    <mxGeometry width="30" height="30" as="geometry">
                        <mxRectangle width="30" height="30" as="alternateBounds"/>
                    </mxGeometry>
                </mxCell>
                <mxCell id="97ya8nI3-TbT8D8gCpiC-113" value="`runtime` int(11) DEFAULT NULL" style="shape=partialRectangle;overflow=hidden;connectable=0;fillColor=#e1d5e7;align=left;top=0;left=0;bottom=0;right=0;spacingLeft=6;rounded=1;strokeColor=#9673a6;shadow=0;fontColor=#0d0d0d;fontStyle=1;" vertex="1" parent="97ya8nI3-TbT8D8gCpiC-111">
                    <mxGeometry x="30" width="260" height="30" as="geometry">
                        <mxRectangle width="260" height="30" as="alternateBounds"/>
                    </mxGeometry>
                </mxCell>
                <mxCell id="97ya8nI3-TbT8D8gCpiC-114" value="" style="shape=tableRow;horizontal=0;startSize=0;swimlaneHead=0;swimlaneBody=0;fillColor=#e1d5e7;collapsible=0;dropTarget=0;points=[[0,0.5],[1,0.5]];portConstraint=eastwest;top=0;left=0;right=0;bottom=0;rounded=1;strokeColor=#9673a6;shadow=0;fontColor=#0d0d0d;fontStyle=1;" vertex="1" parent="97ya8nI3-TbT8D8gCpiC-83">
                    <mxGeometry y="330" width="290" height="30" as="geometry"/>
                </mxCell>
                <mxCell id="97ya8nI3-TbT8D8gCpiC-115" value="" style="shape=partialRectangle;overflow=hidden;connectable=0;fillColor=#e1d5e7;top=0;left=0;bottom=0;right=0;rounded=1;strokeColor=#9673a6;shadow=0;fontColor=#0d0d0d;fontStyle=1;" vertex="1" parent="97ya8nI3-TbT8D8gCpiC-114">
                    <mxGeometry width="30" height="30" as="geometry">
                        <mxRectangle width="30" height="30" as="alternateBounds"/>
                    </mxGeometry>
                </mxCell>
                <mxCell id="97ya8nI3-TbT8D8gCpiC-116" value="`poster` text DEFAULT NULL" style="shape=partialRectangle;overflow=hidden;connectable=0;fillColor=#e1d5e7;align=left;top=0;left=0;bottom=0;right=0;spacingLeft=6;rounded=1;strokeColor=#9673a6;shadow=0;fontColor=#0d0d0d;fontStyle=1;" vertex="1" parent="97ya8nI3-TbT8D8gCpiC-114">
                    <mxGeometry x="30" width="260" height="30" as="geometry">
                        <mxRectangle width="260" height="30" as="alternateBounds"/>
                    </mxGeometry>
                </mxCell>
                <mxCell id="97ya8nI3-TbT8D8gCpiC-117" value="" style="shape=tableRow;horizontal=0;startSize=0;swimlaneHead=0;swimlaneBody=0;fillColor=#e1d5e7;collapsible=0;dropTarget=0;points=[[0,0.5],[1,0.5]];portConstraint=eastwest;top=0;left=0;right=0;bottom=0;rounded=1;strokeColor=#9673a6;shadow=0;fontColor=#0d0d0d;fontStyle=1;" vertex="1" parent="97ya8nI3-TbT8D8gCpiC-83">
                    <mxGeometry y="360" width="290" height="20" as="geometry"/>
                </mxCell>
                <mxCell id="97ya8nI3-TbT8D8gCpiC-118" value="" style="shape=partialRectangle;overflow=hidden;connectable=0;fillColor=#e1d5e7;top=0;left=0;bottom=0;right=0;rounded=1;strokeColor=#9673a6;shadow=0;fontColor=#0d0d0d;fontStyle=1;" vertex="1" parent="97ya8nI3-TbT8D8gCpiC-117">
                    <mxGeometry width="30" height="20" as="geometry">
                        <mxRectangle width="30" height="20" as="alternateBounds"/>
                    </mxGeometry>
                </mxCell>
                <mxCell id="97ya8nI3-TbT8D8gCpiC-119" value="`trailer_url` text DEFAULT NULL" style="shape=partialRectangle;overflow=hidden;connectable=0;fillColor=#e1d5e7;align=left;top=0;left=0;bottom=0;right=0;spacingLeft=6;rounded=1;strokeColor=#9673a6;shadow=0;fontColor=#0d0d0d;fontStyle=1;" vertex="1" parent="97ya8nI3-TbT8D8gCpiC-117">
                    <mxGeometry x="30" width="260" height="20" as="geometry">
                        <mxRectangle width="260" height="20" as="alternateBounds"/>
                    </mxGeometry>
                </mxCell>
                <mxCell id="97ya8nI3-TbT8D8gCpiC-120" value="`Review`" style="shape=table;startSize=30;container=1;collapsible=1;childLayout=tableLayout;fixedRows=1;rowLines=0;fontStyle=1;align=center;resizeLast=1;rounded=1;fillColor=#6d8764;strokeColor=#3A5431;shadow=0;fontColor=#ffffff;" vertex="1" parent="1">
                    <mxGeometry x="-380" y="-160" width="540" height="183" as="geometry"/>
                </mxCell>
                <mxCell id="97ya8nI3-TbT8D8gCpiC-121" value="" style="shape=tableRow;horizontal=0;startSize=0;swimlaneHead=0;swimlaneBody=0;fillColor=#d5e8d4;collapsible=0;dropTarget=0;points=[[0,0.5],[1,0.5]];portConstraint=eastwest;top=0;left=0;right=0;bottom=0;rounded=1;strokeColor=#82b366;shadow=0;fontStyle=1;fontColor=#0f0f0f;" vertex="1" parent="97ya8nI3-TbT8D8gCpiC-120">
                    <mxGeometry y="30" width="540" height="30" as="geometry"/>
                </mxCell>
                <mxCell id="97ya8nI3-TbT8D8gCpiC-122" value="" style="shape=partialRectangle;overflow=hidden;connectable=0;fillColor=#d5e8d4;top=0;left=0;bottom=0;right=0;rounded=1;strokeColor=#82b366;shadow=0;fontStyle=1;fontColor=#0f0f0f;" vertex="1" parent="97ya8nI3-TbT8D8gCpiC-121">
                    <mxGeometry width="30" height="30" as="geometry">
                        <mxRectangle width="30" height="30" as="alternateBounds"/>
                    </mxGeometry>
                </mxCell>
                <mxCell id="97ya8nI3-TbT8D8gCpiC-123" value="`Movieid` int(11) DEFAULT NULL" style="shape=partialRectangle;overflow=hidden;connectable=0;fillColor=#d5e8d4;align=left;top=0;left=0;bottom=0;right=0;spacingLeft=6;rounded=1;strokeColor=#82b366;shadow=0;fontStyle=1;fontColor=#0f0f0f;" vertex="1" parent="97ya8nI3-TbT8D8gCpiC-121">
                    <mxGeometry x="30" width="510" height="30" as="geometry">
                        <mxRectangle width="510" height="30" as="alternateBounds"/>
                    </mxGeometry>
                </mxCell>
                <mxCell id="97ya8nI3-TbT8D8gCpiC-124" value="" style="shape=tableRow;horizontal=0;startSize=0;swimlaneHead=0;swimlaneBody=0;fillColor=#d5e8d4;collapsible=0;dropTarget=0;points=[[0,0.5],[1,0.5]];portConstraint=eastwest;top=0;left=0;right=0;bottom=0;rounded=1;strokeColor=#82b366;shadow=0;fontStyle=1;fontColor=#0f0f0f;" vertex="1" parent="97ya8nI3-TbT8D8gCpiC-120">
                    <mxGeometry y="60" width="540" height="30" as="geometry"/>
                </mxCell>
                <mxCell id="97ya8nI3-TbT8D8gCpiC-125" value="" style="shape=partialRectangle;overflow=hidden;connectable=0;fillColor=#d5e8d4;top=0;left=0;bottom=0;right=0;rounded=1;strokeColor=#82b366;shadow=0;fontStyle=1;fontColor=#0f0f0f;" vertex="1" parent="97ya8nI3-TbT8D8gCpiC-124">
                    <mxGeometry width="30" height="30" as="geometry">
                        <mxRectangle width="30" height="30" as="alternateBounds"/>
                    </mxGeometry>
                </mxCell>
                <mxCell id="97ya8nI3-TbT8D8gCpiC-126" value="`Stars` int(11) DEFAULT NULL" style="shape=partialRectangle;overflow=hidden;connectable=0;fillColor=#d5e8d4;align=left;top=0;left=0;bottom=0;right=0;spacingLeft=6;rounded=1;strokeColor=#82b366;shadow=0;fontStyle=1;fontColor=#0f0f0f;" vertex="1" parent="97ya8nI3-TbT8D8gCpiC-124">
                    <mxGeometry x="30" width="510" height="30" as="geometry">
                        <mxRectangle width="510" height="30" as="alternateBounds"/>
                    </mxGeometry>
                </mxCell>
                <mxCell id="97ya8nI3-TbT8D8gCpiC-127" value="" style="shape=tableRow;horizontal=0;startSize=0;swimlaneHead=0;swimlaneBody=0;fillColor=#d5e8d4;collapsible=0;dropTarget=0;points=[[0,0.5],[1,0.5]];portConstraint=eastwest;top=0;left=0;right=0;bottom=0;rounded=1;strokeColor=#82b366;shadow=0;fontStyle=1;fontColor=#0f0f0f;" vertex="1" parent="97ya8nI3-TbT8D8gCpiC-120">
                    <mxGeometry y="90" width="540" height="30" as="geometry"/>
                </mxCell>
                <mxCell id="97ya8nI3-TbT8D8gCpiC-128" value="" style="shape=partialRectangle;overflow=hidden;connectable=0;fillColor=#d5e8d4;top=0;left=0;bottom=0;right=0;rounded=1;strokeColor=#82b366;shadow=0;fontStyle=1;fontColor=#0f0f0f;" vertex="1" parent="97ya8nI3-TbT8D8gCpiC-127">
                    <mxGeometry width="30" height="30" as="geometry">
                        <mxRectangle width="30" height="30" as="alternateBounds"/>
                    </mxGeometry>
                </mxCell>
                <mxCell id="97ya8nI3-TbT8D8gCpiC-129" value="`Comment` text DEFAULT NULL" style="shape=partialRectangle;overflow=hidden;connectable=0;fillColor=#d5e8d4;align=left;top=0;left=0;bottom=0;right=0;spacingLeft=6;rounded=1;strokeColor=#82b366;shadow=0;fontStyle=1;fontColor=#0f0f0f;" vertex="1" parent="97ya8nI3-TbT8D8gCpiC-127">
                    <mxGeometry x="30" width="510" height="30" as="geometry">
                        <mxRectangle width="510" height="30" as="alternateBounds"/>
                    </mxGeometry>
                </mxCell>
                <mxCell id="97ya8nI3-TbT8D8gCpiC-130" value="" style="shape=tableRow;horizontal=0;startSize=0;swimlaneHead=0;swimlaneBody=0;fillColor=#d5e8d4;collapsible=0;dropTarget=0;points=[[0,0.5],[1,0.5]];portConstraint=eastwest;top=0;left=0;right=0;bottom=0;rounded=1;strokeColor=#82b366;shadow=0;fontStyle=1;fontColor=#0f0f0f;" vertex="1" parent="97ya8nI3-TbT8D8gCpiC-120">
                    <mxGeometry y="120" width="540" height="30" as="geometry"/>
                </mxCell>
                <mxCell id="97ya8nI3-TbT8D8gCpiC-131" value="" style="shape=partialRectangle;overflow=hidden;connectable=0;fillColor=#d5e8d4;top=0;left=0;bottom=0;right=0;rounded=1;strokeColor=#82b366;shadow=0;fontStyle=1;fontColor=#0f0f0f;" vertex="1" parent="97ya8nI3-TbT8D8gCpiC-130">
                    <mxGeometry width="30" height="30" as="geometry">
                        <mxRectangle width="30" height="30" as="alternateBounds"/>
                    </mxGeometry>
                </mxCell>
                <mxCell id="97ya8nI3-TbT8D8gCpiC-132" value="KEY `Movieid` (`Movieid`)" style="shape=partialRectangle;overflow=hidden;connectable=0;fillColor=#d5e8d4;align=left;top=0;left=0;bottom=0;right=0;spacingLeft=6;rounded=1;strokeColor=#82b366;shadow=0;fontStyle=1;fontColor=#0f0f0f;" vertex="1" parent="97ya8nI3-TbT8D8gCpiC-130">
                    <mxGeometry x="30" width="510" height="30" as="geometry">
                        <mxRectangle width="510" height="30" as="alternateBounds"/>
                    </mxGeometry>
                </mxCell>
                <mxCell id="97ya8nI3-TbT8D8gCpiC-133" value="" style="shape=tableRow;horizontal=0;startSize=0;swimlaneHead=0;swimlaneBody=0;fillColor=#d5e8d4;collapsible=0;dropTarget=0;points=[[0,0.5],[1,0.5]];portConstraint=eastwest;top=0;left=0;right=0;bottom=0;rounded=1;strokeColor=#82b366;shadow=0;fontStyle=1;fontColor=#0f0f0f;" vertex="1" parent="97ya8nI3-TbT8D8gCpiC-120">
                    <mxGeometry y="150" width="540" height="30" as="geometry"/>
                </mxCell>
                <mxCell id="97ya8nI3-TbT8D8gCpiC-134" value="" style="shape=partialRectangle;overflow=hidden;connectable=0;fillColor=#d5e8d4;top=0;left=0;bottom=0;right=0;rounded=1;strokeColor=#82b366;shadow=0;fontStyle=1;fontColor=#0f0f0f;" vertex="1" parent="97ya8nI3-TbT8D8gCpiC-133">
                    <mxGeometry width="30" height="30" as="geometry">
                        <mxRectangle width="30" height="30" as="alternateBounds"/>
                    </mxGeometry>
                </mxCell>
                <mxCell id="97ya8nI3-TbT8D8gCpiC-135" value="CONSTRAINT `Review_ibfk_1` FOREIGN KEY (`Movieid`) REFERENCES `Movies` (`Id`)" style="shape=partialRectangle;overflow=hidden;connectable=0;fillColor=#d5e8d4;align=left;top=0;left=0;bottom=0;right=0;spacingLeft=6;rounded=1;strokeColor=#82b366;shadow=0;fontStyle=1;fontColor=#0f0f0f;" vertex="1" parent="97ya8nI3-TbT8D8gCpiC-133">
                    <mxGeometry x="30" width="510" height="30" as="geometry">
                        <mxRectangle width="510" height="30" as="alternateBounds"/>
                    </mxGeometry>
                </mxCell>
                <mxCell id="97ya8nI3-TbT8D8gCpiC-136" value="`users`" style="shape=table;startSize=30;container=1;collapsible=1;childLayout=tableLayout;fixedRows=1;rowLines=0;fontStyle=1;align=center;resizeLast=1;rounded=1;fillColor=#f0a30a;strokeColor=#BD7000;shadow=0;fontColor=#0d0d0d;" vertex="1" parent="1">
                    <mxGeometry x="240" y="-160" width="639" height="360" as="geometry"/>
                </mxCell>
                <mxCell id="97ya8nI3-TbT8D8gCpiC-137" value="" style="shape=tableRow;horizontal=0;startSize=0;swimlaneHead=0;swimlaneBody=0;fillColor=#e1d5e7;collapsible=0;dropTarget=0;points=[[0,0.5],[1,0.5]];portConstraint=eastwest;top=0;left=0;right=0;bottom=1;rounded=1;strokeColor=#9673a6;shadow=0;fontColor=#0d0d0d;fontStyle=1;" vertex="1" parent="97ya8nI3-TbT8D8gCpiC-136">
                    <mxGeometry y="30" width="639" height="30" as="geometry"/>
                </mxCell>
                <mxCell id="97ya8nI3-TbT8D8gCpiC-138" value="PK" style="shape=partialRectangle;overflow=hidden;connectable=0;fillColor=#f0a30a;top=0;left=0;bottom=0;right=0;fontStyle=1;rounded=1;strokeColor=#BD7000;shadow=0;fontColor=#0d0d0d;" vertex="1" parent="97ya8nI3-TbT8D8gCpiC-137">
                    <mxGeometry width="30" height="30" as="geometry">
                        <mxRectangle width="30" height="30" as="alternateBounds"/>
                    </mxGeometry>
                </mxCell>
                <mxCell id="97ya8nI3-TbT8D8gCpiC-139" value="`id` bigint(20) NOT NULL AUTO_INCREMENT" style="shape=partialRectangle;overflow=hidden;connectable=0;fillColor=#ffe6cc;align=left;top=0;left=0;bottom=0;right=0;spacingLeft=6;fontStyle=5;rounded=1;strokeColor=#d79b00;shadow=0;fontColor=#0d0d0d;" vertex="1" parent="97ya8nI3-TbT8D8gCpiC-137">
                    <mxGeometry x="30" width="609" height="30" as="geometry">
                        <mxRectangle width="609" height="30" as="alternateBounds"/>
                    </mxGeometry>
                </mxCell>
                <mxCell id="97ya8nI3-TbT8D8gCpiC-140" value="" style="shape=tableRow;horizontal=0;startSize=0;swimlaneHead=0;swimlaneBody=0;fillColor=#e1d5e7;collapsible=0;dropTarget=0;points=[[0,0.5],[1,0.5]];portConstraint=eastwest;top=0;left=0;right=0;bottom=0;rounded=1;strokeColor=#9673a6;shadow=0;fontColor=#0d0d0d;fontStyle=1;" vertex="1" parent="97ya8nI3-TbT8D8gCpiC-136">
                    <mxGeometry y="60" width="639" height="30" as="geometry"/>
                </mxCell>
                <mxCell id="97ya8nI3-TbT8D8gCpiC-141" value="" style="shape=partialRectangle;overflow=hidden;connectable=0;fillColor=#f0a30a;top=0;left=0;bottom=0;right=0;rounded=1;strokeColor=#BD7000;shadow=0;fontColor=#0d0d0d;fontStyle=1;" vertex="1" parent="97ya8nI3-TbT8D8gCpiC-140">
                    <mxGeometry width="30" height="30" as="geometry">
                        <mxRectangle width="30" height="30" as="alternateBounds"/>
                    </mxGeometry>
                </mxCell>
                <mxCell id="97ya8nI3-TbT8D8gCpiC-142" value="`name` varchar(255) CHARACTER SET latin1 COLLATE latin1_swedish_ci DEFAULT NULL" style="shape=partialRectangle;overflow=hidden;connectable=0;fillColor=#ffe6cc;align=left;top=0;left=0;bottom=0;right=0;spacingLeft=6;rounded=1;strokeColor=#d79b00;shadow=0;fontStyle=1;fontColor=#0d0d0d;" vertex="1" parent="97ya8nI3-TbT8D8gCpiC-140">
                    <mxGeometry x="30" width="609" height="30" as="geometry">
                        <mxRectangle width="609" height="30" as="alternateBounds"/>
                    </mxGeometry>
                </mxCell>
                <mxCell id="97ya8nI3-TbT8D8gCpiC-143" value="" style="shape=tableRow;horizontal=0;startSize=0;swimlaneHead=0;swimlaneBody=0;fillColor=#e1d5e7;collapsible=0;dropTarget=0;points=[[0,0.5],[1,0.5]];portConstraint=eastwest;top=0;left=0;right=0;bottom=0;rounded=1;strokeColor=#9673a6;shadow=0;fontColor=#0d0d0d;fontStyle=1;" vertex="1" parent="97ya8nI3-TbT8D8gCpiC-136">
                    <mxGeometry y="90" width="639" height="30" as="geometry"/>
                </mxCell>
                <mxCell id="97ya8nI3-TbT8D8gCpiC-144" value="" style="shape=partialRectangle;overflow=hidden;connectable=0;fillColor=#f0a30a;top=0;left=0;bottom=0;right=0;rounded=1;strokeColor=#BD7000;shadow=0;fontColor=#0d0d0d;fontStyle=1;" vertex="1" parent="97ya8nI3-TbT8D8gCpiC-143">
                    <mxGeometry width="30" height="30" as="geometry">
                        <mxRectangle width="30" height="30" as="alternateBounds"/>
                    </mxGeometry>
                </mxCell>
                <mxCell id="97ya8nI3-TbT8D8gCpiC-145" value="`email` varchar(255) CHARACTER SET latin1 COLLATE latin1_swedish_ci NOT NULL" style="shape=partialRectangle;overflow=hidden;connectable=0;fillColor=#ffe6cc;align=left;top=0;left=0;bottom=0;right=0;spacingLeft=6;rounded=1;strokeColor=#d79b00;shadow=0;fontStyle=1;fontColor=#0d0d0d;" vertex="1" parent="97ya8nI3-TbT8D8gCpiC-143">
                    <mxGeometry x="30" width="609" height="30" as="geometry">
                        <mxRectangle width="609" height="30" as="alternateBounds"/>
                    </mxGeometry>
                </mxCell>
                <mxCell id="97ya8nI3-TbT8D8gCpiC-146" value="" style="shape=tableRow;horizontal=0;startSize=0;swimlaneHead=0;swimlaneBody=0;fillColor=#e1d5e7;collapsible=0;dropTarget=0;points=[[0,0.5],[1,0.5]];portConstraint=eastwest;top=0;left=0;right=0;bottom=0;rounded=1;strokeColor=#9673a6;shadow=0;fontColor=#0d0d0d;fontStyle=1;" vertex="1" parent="97ya8nI3-TbT8D8gCpiC-136">
                    <mxGeometry y="120" width="639" height="30" as="geometry"/>
                </mxCell>
                <mxCell id="97ya8nI3-TbT8D8gCpiC-147" value="" style="shape=partialRectangle;overflow=hidden;connectable=0;fillColor=#f0a30a;top=0;left=0;bottom=0;right=0;rounded=1;strokeColor=#BD7000;shadow=0;fontColor=#0d0d0d;fontStyle=1;" vertex="1" parent="97ya8nI3-TbT8D8gCpiC-146">
                    <mxGeometry width="30" height="30" as="geometry">
                        <mxRectangle width="30" height="30" as="alternateBounds"/>
                    </mxGeometry>
                </mxCell>
                <mxCell id="97ya8nI3-TbT8D8gCpiC-148" value="`email_verified_at` timestamp NULL DEFAULT NULL" style="shape=partialRectangle;overflow=hidden;connectable=0;fillColor=#ffe6cc;align=left;top=0;left=0;bottom=0;right=0;spacingLeft=6;rounded=1;strokeColor=#d79b00;shadow=0;fontStyle=1;fontColor=#0d0d0d;" vertex="1" parent="97ya8nI3-TbT8D8gCpiC-146">
                    <mxGeometry x="30" width="609" height="30" as="geometry">
                        <mxRectangle width="609" height="30" as="alternateBounds"/>
                    </mxGeometry>
                </mxCell>
                <mxCell id="97ya8nI3-TbT8D8gCpiC-149" value="" style="shape=tableRow;horizontal=0;startSize=0;swimlaneHead=0;swimlaneBody=0;fillColor=#e1d5e7;collapsible=0;dropTarget=0;points=[[0,0.5],[1,0.5]];portConstraint=eastwest;top=0;left=0;right=0;bottom=0;rounded=1;strokeColor=#9673a6;shadow=0;fontColor=#0d0d0d;fontStyle=1;" vertex="1" parent="97ya8nI3-TbT8D8gCpiC-136">
                    <mxGeometry y="150" width="639" height="30" as="geometry"/>
                </mxCell>
                <mxCell id="97ya8nI3-TbT8D8gCpiC-150" value="" style="shape=partialRectangle;overflow=hidden;connectable=0;fillColor=#f0a30a;top=0;left=0;bottom=0;right=0;rounded=1;strokeColor=#BD7000;shadow=0;fontColor=#0d0d0d;fontStyle=1;" vertex="1" parent="97ya8nI3-TbT8D8gCpiC-149">
                    <mxGeometry width="30" height="30" as="geometry">
                        <mxRectangle width="30" height="30" as="alternateBounds"/>
                    </mxGeometry>
                </mxCell>
                <mxCell id="97ya8nI3-TbT8D8gCpiC-151" value="`password` varchar(255) CHARACTER SET latin1 COLLATE latin1_swedish_ci NOT NULL" style="shape=partialRectangle;overflow=hidden;connectable=0;fillColor=#ffe6cc;align=left;top=0;left=0;bottom=0;right=0;spacingLeft=6;rounded=1;strokeColor=#d79b00;shadow=0;fontStyle=1;fontColor=#0d0d0d;" vertex="1" parent="97ya8nI3-TbT8D8gCpiC-149">
                    <mxGeometry x="30" width="609" height="30" as="geometry">
                        <mxRectangle width="609" height="30" as="alternateBounds"/>
                    </mxGeometry>
                </mxCell>
                <mxCell id="97ya8nI3-TbT8D8gCpiC-152" value="" style="shape=tableRow;horizontal=0;startSize=0;swimlaneHead=0;swimlaneBody=0;fillColor=#e1d5e7;collapsible=0;dropTarget=0;points=[[0,0.5],[1,0.5]];portConstraint=eastwest;top=0;left=0;right=0;bottom=0;rounded=1;strokeColor=#9673a6;shadow=0;fontColor=#0d0d0d;fontStyle=1;" vertex="1" parent="97ya8nI3-TbT8D8gCpiC-136">
                    <mxGeometry y="180" width="639" height="30" as="geometry"/>
                </mxCell>
                <mxCell id="97ya8nI3-TbT8D8gCpiC-153" value="" style="shape=partialRectangle;overflow=hidden;connectable=0;fillColor=#f0a30a;top=0;left=0;bottom=0;right=0;rounded=1;strokeColor=#BD7000;shadow=0;fontColor=#0d0d0d;fontStyle=1;" vertex="1" parent="97ya8nI3-TbT8D8gCpiC-152">
                    <mxGeometry width="30" height="30" as="geometry">
                        <mxRectangle width="30" height="30" as="alternateBounds"/>
                    </mxGeometry>
                </mxCell>
                <mxCell id="97ya8nI3-TbT8D8gCpiC-154" value="`remember_token` varchar(100) CHARACTER SET latin1 COLLATE latin1_swedish_ci DEFAULT NULL" style="shape=partialRectangle;overflow=hidden;connectable=0;fillColor=#ffe6cc;align=left;top=0;left=0;bottom=0;right=0;spacingLeft=6;rounded=1;strokeColor=#d79b00;shadow=0;fontStyle=1;fontColor=#0d0d0d;" vertex="1" parent="97ya8nI3-TbT8D8gCpiC-152">
                    <mxGeometry x="30" width="609" height="30" as="geometry">
                        <mxRectangle width="609" height="30" as="alternateBounds"/>
                    </mxGeometry>
                </mxCell>
                <mxCell id="97ya8nI3-TbT8D8gCpiC-155" value="" style="shape=tableRow;horizontal=0;startSize=0;swimlaneHead=0;swimlaneBody=0;fillColor=#e1d5e7;collapsible=0;dropTarget=0;points=[[0,0.5],[1,0.5]];portConstraint=eastwest;top=0;left=0;right=0;bottom=0;rounded=1;strokeColor=#9673a6;shadow=0;fontColor=#0d0d0d;fontStyle=1;" vertex="1" parent="97ya8nI3-TbT8D8gCpiC-136">
                    <mxGeometry y="210" width="639" height="30" as="geometry"/>
                </mxCell>
                <mxCell id="97ya8nI3-TbT8D8gCpiC-156" value="" style="shape=partialRectangle;overflow=hidden;connectable=0;fillColor=#f0a30a;top=0;left=0;bottom=0;right=0;rounded=1;strokeColor=#BD7000;shadow=0;fontColor=#0d0d0d;fontStyle=1;" vertex="1" parent="97ya8nI3-TbT8D8gCpiC-155">
                    <mxGeometry width="30" height="30" as="geometry">
                        <mxRectangle width="30" height="30" as="alternateBounds"/>
                    </mxGeometry>
                </mxCell>
                <mxCell id="97ya8nI3-TbT8D8gCpiC-157" value="`created_at` timestamp NULL DEFAULT NULL" style="shape=partialRectangle;overflow=hidden;connectable=0;fillColor=#ffe6cc;align=left;top=0;left=0;bottom=0;right=0;spacingLeft=6;rounded=1;strokeColor=#d79b00;shadow=0;fontStyle=1;fontColor=#0d0d0d;" vertex="1" parent="97ya8nI3-TbT8D8gCpiC-155">
                    <mxGeometry x="30" width="609" height="30" as="geometry">
                        <mxRectangle width="609" height="30" as="alternateBounds"/>
                    </mxGeometry>
                </mxCell>
                <mxCell id="97ya8nI3-TbT8D8gCpiC-158" value="" style="shape=tableRow;horizontal=0;startSize=0;swimlaneHead=0;swimlaneBody=0;fillColor=#e1d5e7;collapsible=0;dropTarget=0;points=[[0,0.5],[1,0.5]];portConstraint=eastwest;top=0;left=0;right=0;bottom=0;rounded=1;strokeColor=#9673a6;shadow=0;fontColor=#0d0d0d;fontStyle=1;" vertex="1" parent="97ya8nI3-TbT8D8gCpiC-136">
                    <mxGeometry y="240" width="639" height="30" as="geometry"/>
                </mxCell>
                <mxCell id="97ya8nI3-TbT8D8gCpiC-159" value="" style="shape=partialRectangle;overflow=hidden;connectable=0;fillColor=#f0a30a;top=0;left=0;bottom=0;right=0;rounded=1;strokeColor=#BD7000;shadow=0;fontColor=#0d0d0d;fontStyle=1;" vertex="1" parent="97ya8nI3-TbT8D8gCpiC-158">
                    <mxGeometry width="30" height="30" as="geometry">
                        <mxRectangle width="30" height="30" as="alternateBounds"/>
                    </mxGeometry>
                </mxCell>
                <mxCell id="97ya8nI3-TbT8D8gCpiC-160" value="`updated_at` timestamp NULL DEFAULT NULL" style="shape=partialRectangle;overflow=hidden;connectable=0;fillColor=#ffe6cc;align=left;top=0;left=0;bottom=0;right=0;spacingLeft=6;rounded=1;strokeColor=#d79b00;shadow=0;fontStyle=1;fontColor=#0d0d0d;" vertex="1" parent="97ya8nI3-TbT8D8gCpiC-158">
                    <mxGeometry x="30" width="609" height="30" as="geometry">
                        <mxRectangle width="609" height="30" as="alternateBounds"/>
                    </mxGeometry>
                </mxCell>
                <mxCell id="97ya8nI3-TbT8D8gCpiC-161" value="" style="shape=tableRow;horizontal=0;startSize=0;swimlaneHead=0;swimlaneBody=0;fillColor=#e1d5e7;collapsible=0;dropTarget=0;points=[[0,0.5],[1,0.5]];portConstraint=eastwest;top=0;left=0;right=0;bottom=0;rounded=1;strokeColor=#9673a6;shadow=0;fontColor=#0d0d0d;fontStyle=1;" vertex="1" parent="97ya8nI3-TbT8D8gCpiC-136">
                    <mxGeometry y="270" width="639" height="30" as="geometry"/>
                </mxCell>
                <mxCell id="97ya8nI3-TbT8D8gCpiC-162" value="" style="shape=partialRectangle;overflow=hidden;connectable=0;fillColor=#f0a30a;top=0;left=0;bottom=0;right=0;rounded=1;strokeColor=#BD7000;shadow=0;fontColor=#0d0d0d;fontStyle=1;" vertex="1" parent="97ya8nI3-TbT8D8gCpiC-161">
                    <mxGeometry width="30" height="30" as="geometry">
                        <mxRectangle width="30" height="30" as="alternateBounds"/>
                    </mxGeometry>
                </mxCell>
                <mxCell id="97ya8nI3-TbT8D8gCpiC-163" value="`role` text CHARACTER SET latin1 COLLATE latin1_swedish_ci NOT NULL" style="shape=partialRectangle;overflow=hidden;connectable=0;fillColor=#ffe6cc;align=left;top=0;left=0;bottom=0;right=0;spacingLeft=6;rounded=1;strokeColor=#d79b00;shadow=0;fontStyle=1;fontColor=#0d0d0d;" vertex="1" parent="97ya8nI3-TbT8D8gCpiC-161">
                    <mxGeometry x="30" width="609" height="30" as="geometry">
                        <mxRectangle width="609" height="30" as="alternateBounds"/>
                    </mxGeometry>
                </mxCell>
                <mxCell id="97ya8nI3-TbT8D8gCpiC-164" value="" style="shape=tableRow;horizontal=0;startSize=0;swimlaneHead=0;swimlaneBody=0;fillColor=#e1d5e7;collapsible=0;dropTarget=0;points=[[0,0.5],[1,0.5]];portConstraint=eastwest;top=0;left=0;right=0;bottom=0;rounded=1;strokeColor=#9673a6;shadow=0;fontColor=#0d0d0d;fontStyle=1;" vertex="1" parent="97ya8nI3-TbT8D8gCpiC-136">
                    <mxGeometry y="300" width="639" height="30" as="geometry"/>
                </mxCell>
                <mxCell id="97ya8nI3-TbT8D8gCpiC-165" value="" style="shape=partialRectangle;overflow=hidden;connectable=0;fillColor=#f0a30a;top=0;left=0;bottom=0;right=0;rounded=1;strokeColor=#BD7000;shadow=0;fontColor=#0d0d0d;fontStyle=1;" vertex="1" parent="97ya8nI3-TbT8D8gCpiC-164">
                    <mxGeometry width="30" height="30" as="geometry">
                        <mxRectangle width="30" height="30" as="alternateBounds"/>
                    </mxGeometry>
                </mxCell>
                <mxCell id="97ya8nI3-TbT8D8gCpiC-166" value="UNIQUE KEY `users_email_unique` (`email`)" style="shape=partialRectangle;overflow=hidden;connectable=0;fillColor=#ffe6cc;align=left;top=0;left=0;bottom=0;right=0;spacingLeft=6;rounded=1;strokeColor=#d79b00;shadow=0;fontStyle=1;fontColor=#0d0d0d;" vertex="1" parent="97ya8nI3-TbT8D8gCpiC-164">
                    <mxGeometry x="30" width="609" height="30" as="geometry">
                        <mxRectangle width="609" height="30" as="alternateBounds"/>
                    </mxGeometry>
                </mxCell>
                <mxCell id="97ya8nI3-TbT8D8gCpiC-167" value="" style="shape=tableRow;horizontal=0;startSize=0;swimlaneHead=0;swimlaneBody=0;fillColor=#e1d5e7;collapsible=0;dropTarget=0;points=[[0,0.5],[1,0.5]];portConstraint=eastwest;top=0;left=0;right=0;bottom=0;rounded=1;strokeColor=#9673a6;shadow=0;fontColor=#0d0d0d;fontStyle=1;" vertex="1" parent="97ya8nI3-TbT8D8gCpiC-136">
                    <mxGeometry y="330" width="639" height="30" as="geometry"/>
                </mxCell>
                <mxCell id="97ya8nI3-TbT8D8gCpiC-168" value="" style="shape=partialRectangle;overflow=hidden;connectable=0;fillColor=#f0a30a;top=0;left=0;bottom=0;right=0;rounded=1;strokeColor=#BD7000;shadow=0;fontColor=#0d0d0d;fontStyle=1;" vertex="1" parent="97ya8nI3-TbT8D8gCpiC-167">
                    <mxGeometry width="30" height="30" as="geometry">
                        <mxRectangle width="30" height="30" as="alternateBounds"/>
                    </mxGeometry>
                </mxCell>
                <mxCell id="97ya8nI3-TbT8D8gCpiC-169" value="UNIQUE KEY `id` (`id`)" style="shape=partialRectangle;overflow=hidden;connectable=0;fillColor=#ffe6cc;align=left;top=0;left=0;bottom=0;right=0;spacingLeft=6;rounded=1;strokeColor=#d79b00;shadow=0;fontStyle=1;fontColor=#0d0d0d;" vertex="1" parent="97ya8nI3-TbT8D8gCpiC-167">
                    <mxGeometry x="30" width="609" height="30" as="geometry">
                        <mxRectangle width="609" height="30" as="alternateBounds"/>
                    </mxGeometry>
                </mxCell>
                <mxCell id="97ya8nI3-TbT8D8gCpiC-170" value="`Watchlist`" style="shape=table;startSize=30;container=1;collapsible=1;childLayout=tableLayout;fixedRows=1;rowLines=0;fontStyle=1;align=center;resizeLast=1;rounded=1;fillColor=#6d8764;strokeColor=#3A5431;shadow=0;fontColor=#ffffff;" vertex="1" parent="1">
                    <mxGeometry x="-450" y="-420" width="610" height="210" as="geometry"/>
                </mxCell>
                <mxCell id="97ya8nI3-TbT8D8gCpiC-171" value="" style="shape=tableRow;horizontal=0;startSize=0;swimlaneHead=0;swimlaneBody=0;fillColor=#d5e8d4;collapsible=0;dropTarget=0;points=[[0,0.5],[1,0.5]];portConstraint=eastwest;top=0;left=0;right=0;bottom=1;rounded=1;strokeColor=#82b366;shadow=0;fontStyle=1;fontColor=#0f0f0f;" vertex="1" parent="97ya8nI3-TbT8D8gCpiC-170">
                    <mxGeometry y="30" width="610" height="30" as="geometry"/>
                </mxCell>
                <mxCell id="97ya8nI3-TbT8D8gCpiC-172" value="PK" style="shape=partialRectangle;overflow=hidden;connectable=0;fillColor=#d5e8d4;top=0;left=0;bottom=0;right=0;fontStyle=1;rounded=1;strokeColor=#82b366;shadow=0;fontColor=#0f0f0f;" vertex="1" parent="97ya8nI3-TbT8D8gCpiC-171">
                    <mxGeometry width="30" height="30" as="geometry">
                        <mxRectangle width="30" height="30" as="alternateBounds"/>
                    </mxGeometry>
                </mxCell>
                <mxCell id="97ya8nI3-TbT8D8gCpiC-173" value="`Id` int(11) NOT NULL" style="shape=partialRectangle;overflow=hidden;connectable=0;fillColor=#d5e8d4;align=left;top=0;left=0;bottom=0;right=0;spacingLeft=6;fontStyle=5;rounded=1;strokeColor=#82b366;shadow=0;fontColor=#0f0f0f;" vertex="1" parent="97ya8nI3-TbT8D8gCpiC-171">
                    <mxGeometry x="30" width="580" height="30" as="geometry">
                        <mxRectangle width="580" height="30" as="alternateBounds"/>
                    </mxGeometry>
                </mxCell>
                <mxCell id="97ya8nI3-TbT8D8gCpiC-174" value="" style="shape=tableRow;horizontal=0;startSize=0;swimlaneHead=0;swimlaneBody=0;fillColor=#d5e8d4;collapsible=0;dropTarget=0;points=[[0,0.5],[1,0.5]];portConstraint=eastwest;top=0;left=0;right=0;bottom=0;rounded=1;strokeColor=#82b366;shadow=0;fontStyle=1;fontColor=#0f0f0f;" vertex="1" parent="97ya8nI3-TbT8D8gCpiC-170">
                    <mxGeometry y="60" width="610" height="30" as="geometry"/>
                </mxCell>
                <mxCell id="97ya8nI3-TbT8D8gCpiC-175" value="" style="shape=partialRectangle;overflow=hidden;connectable=0;fillColor=#d5e8d4;top=0;left=0;bottom=0;right=0;rounded=1;strokeColor=#82b366;shadow=0;fontStyle=1;fontColor=#0f0f0f;" vertex="1" parent="97ya8nI3-TbT8D8gCpiC-174">
                    <mxGeometry width="30" height="30" as="geometry">
                        <mxRectangle width="30" height="30" as="alternateBounds"/>
                    </mxGeometry>
                </mxCell>
                <mxCell id="97ya8nI3-TbT8D8gCpiC-176" value="`Moviesid` int(11) DEFAULT NULL" style="shape=partialRectangle;overflow=hidden;connectable=0;fillColor=#d5e8d4;align=left;top=0;left=0;bottom=0;right=0;spacingLeft=6;rounded=1;strokeColor=#82b366;shadow=0;fontStyle=1;fontColor=#0f0f0f;" vertex="1" parent="97ya8nI3-TbT8D8gCpiC-174">
                    <mxGeometry x="30" width="580" height="30" as="geometry">
                        <mxRectangle width="580" height="30" as="alternateBounds"/>
                    </mxGeometry>
                </mxCell>
                <mxCell id="97ya8nI3-TbT8D8gCpiC-177" value="" style="shape=tableRow;horizontal=0;startSize=0;swimlaneHead=0;swimlaneBody=0;fillColor=#d5e8d4;collapsible=0;dropTarget=0;points=[[0,0.5],[1,0.5]];portConstraint=eastwest;top=0;left=0;right=0;bottom=0;rounded=1;strokeColor=#82b366;shadow=0;fontStyle=1;fontColor=#0f0f0f;" vertex="1" parent="97ya8nI3-TbT8D8gCpiC-170">
                    <mxGeometry y="90" width="610" height="30" as="geometry"/>
                </mxCell>
                <mxCell id="97ya8nI3-TbT8D8gCpiC-178" value="" style="shape=partialRectangle;overflow=hidden;connectable=0;fillColor=#d5e8d4;top=0;left=0;bottom=0;right=0;rounded=1;strokeColor=#82b366;shadow=0;fontStyle=1;fontColor=#0f0f0f;" vertex="1" parent="97ya8nI3-TbT8D8gCpiC-177">
                    <mxGeometry width="30" height="30" as="geometry">
                        <mxRectangle width="30" height="30" as="alternateBounds"/>
                    </mxGeometry>
                </mxCell>
                <mxCell id="97ya8nI3-TbT8D8gCpiC-179" value="`Movie` varchar(255) DEFAULT NULL" style="shape=partialRectangle;overflow=hidden;connectable=0;fillColor=#d5e8d4;align=left;top=0;left=0;bottom=0;right=0;spacingLeft=6;rounded=1;strokeColor=#82b366;shadow=0;fontStyle=1;fontColor=#0f0f0f;" vertex="1" parent="97ya8nI3-TbT8D8gCpiC-177">
                    <mxGeometry x="30" width="580" height="30" as="geometry">
                        <mxRectangle width="580" height="30" as="alternateBounds"/>
                    </mxGeometry>
                </mxCell>
                <mxCell id="97ya8nI3-TbT8D8gCpiC-180" value="" style="shape=tableRow;horizontal=0;startSize=0;swimlaneHead=0;swimlaneBody=0;fillColor=#d5e8d4;collapsible=0;dropTarget=0;points=[[0,0.5],[1,0.5]];portConstraint=eastwest;top=0;left=0;right=0;bottom=0;rounded=1;strokeColor=#82b366;shadow=0;fontStyle=1;fontColor=#0f0f0f;" vertex="1" parent="97ya8nI3-TbT8D8gCpiC-170">
                    <mxGeometry y="120" width="610" height="30" as="geometry"/>
                </mxCell>
                <mxCell id="97ya8nI3-TbT8D8gCpiC-181" value="" style="shape=partialRectangle;overflow=hidden;connectable=0;fillColor=#d5e8d4;top=0;left=0;bottom=0;right=0;rounded=1;strokeColor=#82b366;shadow=0;fontStyle=1;fontColor=#0f0f0f;" vertex="1" parent="97ya8nI3-TbT8D8gCpiC-180">
                    <mxGeometry width="30" height="30" as="geometry">
                        <mxRectangle width="30" height="30" as="alternateBounds"/>
                    </mxGeometry>
                </mxCell>
                <mxCell id="97ya8nI3-TbT8D8gCpiC-182" value="`created_at` timestamp NOT NULL DEFAULT current_timestamp() ON UPDATE current_timestamp()" style="shape=partialRectangle;overflow=hidden;connectable=0;fillColor=#d5e8d4;align=left;top=0;left=0;bottom=0;right=0;spacingLeft=6;rounded=1;strokeColor=#82b366;shadow=0;fontStyle=1;fontColor=#0f0f0f;" vertex="1" parent="97ya8nI3-TbT8D8gCpiC-180">
                    <mxGeometry x="30" width="580" height="30" as="geometry">
                        <mxRectangle width="580" height="30" as="alternateBounds"/>
                    </mxGeometry>
                </mxCell>
                <mxCell id="97ya8nI3-TbT8D8gCpiC-183" value="" style="shape=tableRow;horizontal=0;startSize=0;swimlaneHead=0;swimlaneBody=0;fillColor=#d5e8d4;collapsible=0;dropTarget=0;points=[[0,0.5],[1,0.5]];portConstraint=eastwest;top=0;left=0;right=0;bottom=0;rounded=1;strokeColor=#82b366;shadow=0;fontStyle=1;fontColor=#0f0f0f;" vertex="1" parent="97ya8nI3-TbT8D8gCpiC-170">
                    <mxGeometry y="150" width="610" height="30" as="geometry"/>
                </mxCell>
                <mxCell id="97ya8nI3-TbT8D8gCpiC-184" value="" style="shape=partialRectangle;overflow=hidden;connectable=0;fillColor=#d5e8d4;top=0;left=0;bottom=0;right=0;rounded=1;strokeColor=#82b366;shadow=0;fontStyle=1;fontColor=#0f0f0f;" vertex="1" parent="97ya8nI3-TbT8D8gCpiC-183">
                    <mxGeometry width="30" height="30" as="geometry">
                        <mxRectangle width="30" height="30" as="alternateBounds"/>
                    </mxGeometry>
                </mxCell>
                <mxCell id="97ya8nI3-TbT8D8gCpiC-185" value="KEY `Moviesid` (`Moviesid`)" style="shape=partialRectangle;overflow=hidden;connectable=0;fillColor=#d5e8d4;align=left;top=0;left=0;bottom=0;right=0;spacingLeft=6;rounded=1;strokeColor=#82b366;shadow=0;fontStyle=1;fontColor=#0f0f0f;" vertex="1" parent="97ya8nI3-TbT8D8gCpiC-183">
                    <mxGeometry x="30" width="580" height="30" as="geometry">
                        <mxRectangle width="580" height="30" as="alternateBounds"/>
                    </mxGeometry>
                </mxCell>
                <mxCell id="97ya8nI3-TbT8D8gCpiC-186" value="" style="shape=tableRow;horizontal=0;startSize=0;swimlaneHead=0;swimlaneBody=0;fillColor=#d5e8d4;collapsible=0;dropTarget=0;points=[[0,0.5],[1,0.5]];portConstraint=eastwest;top=0;left=0;right=0;bottom=0;rounded=1;strokeColor=#82b366;shadow=0;fontStyle=1;fontColor=#0f0f0f;" vertex="1" parent="97ya8nI3-TbT8D8gCpiC-170">
                    <mxGeometry y="180" width="610" height="30" as="geometry"/>
                </mxCell>
                <mxCell id="97ya8nI3-TbT8D8gCpiC-187" value="" style="shape=partialRectangle;overflow=hidden;connectable=0;fillColor=#d5e8d4;top=0;left=0;bottom=0;right=0;rounded=1;strokeColor=#82b366;shadow=0;fontStyle=1;fontColor=#0f0f0f;" vertex="1" parent="97ya8nI3-TbT8D8gCpiC-186">
                    <mxGeometry width="30" height="30" as="geometry">
                        <mxRectangle width="30" height="30" as="alternateBounds"/>
                    </mxGeometry>
                </mxCell>
                <mxCell id="97ya8nI3-TbT8D8gCpiC-188" value="CONSTRAINT `Watchlist_ibfk_1` FOREIGN KEY (`Moviesid`) REFERENCES `Movies` (`Id`)" style="shape=partialRectangle;overflow=hidden;connectable=0;fillColor=#d5e8d4;align=left;top=0;left=0;bottom=0;right=0;spacingLeft=6;rounded=1;strokeColor=#82b366;shadow=0;fontStyle=1;fontColor=#0f0f0f;" vertex="1" parent="97ya8nI3-TbT8D8gCpiC-186">
                    <mxGeometry x="30" width="580" height="30" as="geometry">
                        <mxRectangle width="580" height="30" as="alternateBounds"/>
                    </mxGeometry>
                </mxCell>
            </root>
        </mxGraphModel>
    </diagram>
    <diagram id="uBlo80xCk2Z1q4wEhDI7" name="Lucid ERD(on progress)">
        <mxGraphModel dx="2870" dy="2635" grid="1" gridSize="10" guides="1" tooltips="1" connect="1" arrows="1" fold="1" page="1" pageScale="1" pageWidth="850" pageHeight="1100" math="0" shadow="0">
            <root>
                <mxCell id="0"/>
                <mxCell id="1" parent="0"/>
                <UserObject label="" lucidchartObjectId="4xwLI~ZSL93J" id="Sz9_Vn8zezD9jcCbJGTU-1">
                    <mxCell style="html=1;jettySize=18;whiteSpace=wrap;fontSize=13;strokeColor=#54c45e;strokeOpacity=100;strokeWidth=2.3;rounded=1;arcSize=24;edgeStyle=orthogonalEdgeStyle;startArrow=ERmany;startSize=10;endArrow=ERone;endSize=16;exitX=-0.002;exitY=0.171;exitPerimeter=0;entryX=1.002;entryY=0.779;entryPerimeter=0;" edge="1" parent="1" source="Sz9_Vn8zezD9jcCbJGTU-35" target="Sz9_Vn8zezD9jcCbJGTU-57">
                        <mxGeometry width="100" height="100" relative="1" as="geometry">
                            <Array as="points">
                                <mxPoint x="1255" y="222"/>
                            </Array>
                        </mxGeometry>
                    </mxCell>
                </UserObject>
                <mxCell id="Sz9_Vn8zezD9jcCbJGTU-2" value="User" style="html=1;overflow=block;blockSpacing=1;swimlane;resizeParent=1;resizeParentMax=0;resizeLast=0;collapsible=0;marginBottom=0;fontStyle=0;swimlaneFillColor=#ffffff;startSize=30;whiteSpace=wrap;fontSize=13;fontColor=#333333;align=left;fillColor=#e0e0e0;spacing=0;strokeColor=#282c33;strokeOpacity=100;fillOpacity=100;rounded=1;absoluteArcSize=1;arcSize=7.5;strokeWidth=0.8;" vertex="1" parent="1">
                    <mxGeometry x="310" y="-3" width="260" height="150" as="geometry"/>
                </mxCell>
                <mxCell id="Sz9_Vn8zezD9jcCbJGTU-3" value="Id" style="strokeColor=none;part=1;resizeHeight=0;align=left;verticalAlign=top;spacingLeft=4;spacingRight=4;overflow=hidden;rotatable=0;points=[[0,0.5],[1,0.5]];portConstraint=eastwest;swimlaneFillColor=#ffffff;whiteSpace=wrap;fontSize=13;fontColor=#333333;fillColor=none;strokeOpacity=100;fillOpacity=100;spacing=0;rounded=1;absoluteArcSize=1;arcSize=7.5;strokeWidth=0.8;" vertex="1" parent="Sz9_Vn8zezD9jcCbJGTU-2">
                    <mxGeometry y="30" width="30" height="24" as="geometry"/>
                </mxCell>
                <mxCell id="Sz9_Vn8zezD9jcCbJGTU-4" value="PK" style="shape=partialRectangle;top=0;right=0;bottom=0;part=1;resizeHeight=0;align=left;verticalAlign=top;spacingLeft=4;spacingRight=4;overflow=hidden;rotatable=0;points=[[0,0.5],[1,0.5]];portConstraint=eastwest;swimlaneFillColor=#ffffff;whiteSpace=wrap;fontSize=13;fontColor=#333333;fillColor=none;strokeOpacity=100;fillOpacity=100;spacing=0;strokeColor=#282c33;rounded=1;absoluteArcSize=1;arcSize=7.5;strokeWidth=0.8;" vertex="1" parent="Sz9_Vn8zezD9jcCbJGTU-2">
                    <mxGeometry x="30" y="30" width="210" height="24" as="geometry"/>
                </mxCell>
                <mxCell id="Sz9_Vn8zezD9jcCbJGTU-5" value="User name" style="strokeColor=none;part=1;resizeHeight=0;align=left;verticalAlign=top;spacingLeft=4;spacingRight=4;overflow=hidden;rotatable=0;points=[[0,0.5],[1,0.5]];portConstraint=eastwest;swimlaneFillColor=#ffffff;whiteSpace=wrap;fontSize=13;fontColor=#333333;fillColor=none;strokeOpacity=100;fillOpacity=100;spacing=0;rounded=1;absoluteArcSize=1;arcSize=7.5;strokeWidth=0.8;" vertex="1" parent="Sz9_Vn8zezD9jcCbJGTU-2">
                    <mxGeometry y="54" width="30" height="24" as="geometry"/>
                </mxCell>
                <mxCell id="Sz9_Vn8zezD9jcCbJGTU-6" value="text" style="shape=partialRectangle;top=0;right=0;bottom=0;part=1;resizeHeight=0;align=left;verticalAlign=top;spacingLeft=4;spacingRight=4;overflow=hidden;rotatable=0;points=[[0,0.5],[1,0.5]];portConstraint=eastwest;swimlaneFillColor=#ffffff;whiteSpace=wrap;fontSize=13;fontColor=#333333;fillColor=none;strokeOpacity=100;fillOpacity=100;spacing=0;strokeColor=#282c33;rounded=1;absoluteArcSize=1;arcSize=7.5;strokeWidth=0.8;" vertex="1" parent="Sz9_Vn8zezD9jcCbJGTU-2">
                    <mxGeometry x="30" y="54" width="210" height="24" as="geometry"/>
                </mxCell>
                <mxCell id="Sz9_Vn8zezD9jcCbJGTU-7" value="Password" style="strokeColor=none;part=1;resizeHeight=0;align=left;verticalAlign=top;spacingLeft=4;spacingRight=4;overflow=hidden;rotatable=0;points=[[0,0.5],[1,0.5]];portConstraint=eastwest;swimlaneFillColor=#ffffff;whiteSpace=wrap;fontSize=13;fontColor=#333333;fillColor=none;strokeOpacity=100;fillOpacity=100;spacing=0;rounded=1;absoluteArcSize=1;arcSize=7.5;strokeWidth=0.8;" vertex="1" parent="Sz9_Vn8zezD9jcCbJGTU-2">
                    <mxGeometry y="80" width="30" height="22" as="geometry"/>
                </mxCell>
                <mxCell id="Sz9_Vn8zezD9jcCbJGTU-8" value="password" style="shape=partialRectangle;top=0;right=0;bottom=0;part=1;resizeHeight=0;align=left;verticalAlign=top;spacingLeft=4;spacingRight=4;overflow=hidden;rotatable=0;points=[[0,0.5],[1,0.5]];portConstraint=eastwest;swimlaneFillColor=#ffffff;whiteSpace=wrap;fontSize=13;fontColor=#333333;fillColor=none;strokeOpacity=100;fillOpacity=100;spacing=0;strokeColor=#282c33;rounded=1;absoluteArcSize=1;arcSize=7.5;strokeWidth=0.8;" vertex="1" parent="Sz9_Vn8zezD9jcCbJGTU-2">
                    <mxGeometry x="30" y="78" width="210" height="24" as="geometry"/>
                </mxCell>
                <mxCell id="Sz9_Vn8zezD9jcCbJGTU-9" value="Email" style="strokeColor=none;part=1;resizeHeight=0;align=left;verticalAlign=top;spacingLeft=4;spacingRight=4;overflow=hidden;rotatable=0;points=[[0,0.5],[1,0.5]];portConstraint=eastwest;swimlaneFillColor=#ffffff;whiteSpace=wrap;fontSize=13;fontColor=#333333;fillColor=none;strokeOpacity=100;fillOpacity=100;spacing=0;rounded=1;absoluteArcSize=1;arcSize=7.5;strokeWidth=0.8;" vertex="1" parent="Sz9_Vn8zezD9jcCbJGTU-2">
                    <mxGeometry y="102" width="30" height="24" as="geometry"/>
                </mxCell>
                <mxCell id="Sz9_Vn8zezD9jcCbJGTU-10" value="email" style="shape=partialRectangle;top=0;right=0;bottom=0;part=1;resizeHeight=0;align=left;verticalAlign=top;spacingLeft=4;spacingRight=4;overflow=hidden;rotatable=0;points=[[0,0.5],[1,0.5]];portConstraint=eastwest;swimlaneFillColor=#ffffff;whiteSpace=wrap;fontSize=13;fontColor=#333333;fillColor=none;strokeOpacity=100;fillOpacity=100;spacing=0;strokeColor=#282c33;rounded=1;absoluteArcSize=1;arcSize=7.5;strokeWidth=0.8;" vertex="1" parent="Sz9_Vn8zezD9jcCbJGTU-2">
                    <mxGeometry x="30" y="102" width="210" height="24" as="geometry"/>
                </mxCell>
                <mxCell id="Sz9_Vn8zezD9jcCbJGTU-11" value="User Id" style="strokeColor=none;part=1;resizeHeight=0;align=left;verticalAlign=top;spacingLeft=4;spacingRight=4;overflow=hidden;rotatable=0;points=[[0,0.5],[1,0.5]];portConstraint=eastwest;swimlaneFillColor=#ffffff;whiteSpace=wrap;fontSize=13;fontColor=#333333;fillColor=none;strokeOpacity=100;fillOpacity=100;spacing=0;rounded=1;absoluteArcSize=1;arcSize=7.5;strokeWidth=0.8;" vertex="1" parent="Sz9_Vn8zezD9jcCbJGTU-2">
                    <mxGeometry y="126" width="30" height="24" as="geometry"/>
                </mxCell>
                <mxCell id="Sz9_Vn8zezD9jcCbJGTU-12" value="FK" style="shape=partialRectangle;top=0;right=0;bottom=0;part=1;resizeHeight=0;align=left;verticalAlign=top;spacingLeft=4;spacingRight=4;overflow=hidden;rotatable=0;points=[[0,0.5],[1,0.5]];portConstraint=eastwest;swimlaneFillColor=#ffffff;whiteSpace=wrap;fontSize=13;fontColor=#333333;fillColor=none;strokeOpacity=100;fillOpacity=100;spacing=0;strokeColor=#282c33;rounded=1;absoluteArcSize=1;arcSize=7.5;strokeWidth=0.8;" vertex="1" parent="Sz9_Vn8zezD9jcCbJGTU-2">
                    <mxGeometry x="30" y="126" width="210" height="24" as="geometry"/>
                </mxCell>
                <mxCell id="Sz9_Vn8zezD9jcCbJGTU-13" value="Role" style="strokeColor=none;part=1;resizeHeight=0;align=left;verticalAlign=top;spacingLeft=4;spacingRight=4;overflow=hidden;rotatable=0;points=[[0,0.5],[1,0.5]];portConstraint=eastwest;swimlaneFillColor=#ffffff;whiteSpace=wrap;fontSize=13;fontColor=#333333;fillColor=none;strokeOpacity=100;fillOpacity=100;spacing=0;rounded=1;absoluteArcSize=1;arcSize=7.5;strokeWidth=0.8;" vertex="1" parent="Sz9_Vn8zezD9jcCbJGTU-2">
                    <mxGeometry y="150" width="30" as="geometry"/>
                </mxCell>
                <mxCell id="Sz9_Vn8zezD9jcCbJGTU-14" value="text" style="shape=partialRectangle;top=0;right=0;bottom=0;part=1;resizeHeight=0;align=left;verticalAlign=top;spacingLeft=4;spacingRight=4;overflow=hidden;rotatable=0;points=[[0,0.5],[1,0.5]];portConstraint=eastwest;swimlaneFillColor=#ffffff;whiteSpace=wrap;fontSize=13;fontColor=#333333;fillColor=none;strokeOpacity=100;fillOpacity=100;spacing=0;strokeColor=#282c33;rounded=1;absoluteArcSize=1;arcSize=7.5;strokeWidth=0.8;" vertex="1" parent="Sz9_Vn8zezD9jcCbJGTU-2">
                    <mxGeometry x="30" y="150" width="210" as="geometry"/>
                </mxCell>
                <mxCell id="Sz9_Vn8zezD9jcCbJGTU-15" value="Review" style="html=1;overflow=block;blockSpacing=1;swimlane;resizeParent=1;resizeParentMax=0;resizeLast=0;collapsible=0;marginBottom=0;fontStyle=0;swimlaneFillColor=#ffffff;startSize=30;whiteSpace=wrap;fontSize=13;fontColor=#333333;align=left;fillColor=#e0e0e0;spacing=0;strokeColor=#282c33;strokeOpacity=100;fillOpacity=100;rounded=1;absoluteArcSize=1;arcSize=7.5;strokeWidth=0.8;" vertex="1" parent="1">
                    <mxGeometry x="1230" y="-159" width="210" height="102" as="geometry"/>
                </mxCell>
                <mxCell id="Sz9_Vn8zezD9jcCbJGTU-16" value="Movie Id" style="strokeColor=none;part=1;resizeHeight=0;align=left;verticalAlign=top;spacingLeft=4;spacingRight=4;overflow=hidden;rotatable=0;points=[[0,0.5],[1,0.5]];portConstraint=eastwest;swimlaneFillColor=#ffffff;whiteSpace=wrap;fontSize=13;fontColor=#333333;fillColor=none;strokeOpacity=100;fillOpacity=100;spacing=0;rounded=1;absoluteArcSize=1;arcSize=7.5;strokeWidth=0.8;" vertex="1" parent="Sz9_Vn8zezD9jcCbJGTU-15">
                    <mxGeometry y="30" width="30" height="24" as="geometry"/>
                </mxCell>
                <mxCell id="Sz9_Vn8zezD9jcCbJGTU-17" value="FK" style="shape=partialRectangle;top=0;right=0;bottom=0;part=1;resizeHeight=0;align=left;verticalAlign=top;spacingLeft=4;spacingRight=4;overflow=hidden;rotatable=0;points=[[0,0.5],[1,0.5]];portConstraint=eastwest;swimlaneFillColor=#ffffff;whiteSpace=wrap;fontSize=13;fontColor=#333333;fillColor=none;strokeOpacity=100;fillOpacity=100;spacing=0;strokeColor=#282c33;rounded=1;absoluteArcSize=1;arcSize=7.5;strokeWidth=0.8;" vertex="1" parent="Sz9_Vn8zezD9jcCbJGTU-15">
                    <mxGeometry x="30" y="30" width="180" height="24" as="geometry"/>
                </mxCell>
                <mxCell id="Sz9_Vn8zezD9jcCbJGTU-18" value="Stars" style="strokeColor=none;part=1;resizeHeight=0;align=left;verticalAlign=top;spacingLeft=4;spacingRight=4;overflow=hidden;rotatable=0;points=[[0,0.5],[1,0.5]];portConstraint=eastwest;swimlaneFillColor=#ffffff;whiteSpace=wrap;fontSize=13;fontColor=#333333;fillColor=none;strokeOpacity=100;fillOpacity=100;spacing=0;rounded=1;absoluteArcSize=1;arcSize=7.5;strokeWidth=0.8;" vertex="1" parent="Sz9_Vn8zezD9jcCbJGTU-15">
                    <mxGeometry y="54" width="30" height="24" as="geometry"/>
                </mxCell>
                <mxCell id="Sz9_Vn8zezD9jcCbJGTU-19" value="int" style="shape=partialRectangle;top=0;right=0;bottom=0;part=1;resizeHeight=0;align=left;verticalAlign=top;spacingLeft=4;spacingRight=4;overflow=hidden;rotatable=0;points=[[0,0.5],[1,0.5]];portConstraint=eastwest;swimlaneFillColor=#ffffff;whiteSpace=wrap;fontSize=13;fontColor=#333333;fillColor=none;strokeOpacity=100;fillOpacity=100;spacing=0;strokeColor=#282c33;rounded=1;absoluteArcSize=1;arcSize=7.5;strokeWidth=0.8;" vertex="1" parent="Sz9_Vn8zezD9jcCbJGTU-15">
                    <mxGeometry x="30" y="54" width="180" height="24" as="geometry"/>
                </mxCell>
                <mxCell id="Sz9_Vn8zezD9jcCbJGTU-20" value="Comment" style="strokeColor=none;part=1;resizeHeight=0;align=left;verticalAlign=top;spacingLeft=4;spacingRight=4;overflow=hidden;rotatable=0;points=[[0,0.5],[1,0.5]];portConstraint=eastwest;swimlaneFillColor=#ffffff;whiteSpace=wrap;fontSize=13;fontColor=#333333;fillColor=none;strokeOpacity=100;fillOpacity=100;spacing=0;rounded=1;absoluteArcSize=1;arcSize=7.5;strokeWidth=0.8;" vertex="1" parent="Sz9_Vn8zezD9jcCbJGTU-15">
                    <mxGeometry y="78" width="30" height="15" as="geometry"/>
                </mxCell>
                <mxCell id="Sz9_Vn8zezD9jcCbJGTU-21" value="text" style="shape=partialRectangle;top=0;right=0;bottom=0;part=1;resizeHeight=0;align=left;verticalAlign=top;spacingLeft=4;spacingRight=4;overflow=hidden;rotatable=0;points=[[0,0.5],[1,0.5]];portConstraint=eastwest;swimlaneFillColor=#ffffff;whiteSpace=wrap;fontSize=13;fontColor=#333333;fillColor=none;strokeOpacity=100;fillOpacity=100;spacing=0;strokeColor=#282c33;rounded=1;absoluteArcSize=1;arcSize=7.5;strokeWidth=0.8;" vertex="1" parent="Sz9_Vn8zezD9jcCbJGTU-15">
                    <mxGeometry x="30" y="78" width="180" height="15" as="geometry"/>
                </mxCell>
                <mxCell id="Sz9_Vn8zezD9jcCbJGTU-22" value="Watchlist" style="html=1;overflow=block;blockSpacing=1;swimlane;resizeParent=1;resizeParentMax=0;resizeLast=0;collapsible=0;marginBottom=0;fontStyle=0;swimlaneFillColor=#ffffff;startSize=30;whiteSpace=wrap;fontSize=13;fontColor=#333333;align=left;fillColor=#e0e0e0;spacing=0;strokeColor=#282c33;strokeOpacity=100;fillOpacity=100;rounded=1;absoluteArcSize=1;arcSize=7.5;strokeWidth=0.8;" vertex="1" parent="1">
                    <mxGeometry x="1050" y="75" width="195" height="126" as="geometry"/>
                </mxCell>
                <mxCell id="Sz9_Vn8zezD9jcCbJGTU-23" value="Id" style="strokeColor=none;part=1;resizeHeight=0;align=left;verticalAlign=top;spacingLeft=4;spacingRight=4;overflow=hidden;rotatable=0;points=[[0,0.5],[1,0.5]];portConstraint=eastwest;swimlaneFillColor=#ffffff;whiteSpace=wrap;fontSize=13;fontColor=#333333;fillColor=none;strokeOpacity=100;fillOpacity=100;spacing=0;rounded=1;absoluteArcSize=1;arcSize=7.5;strokeWidth=0.8;" vertex="1" parent="Sz9_Vn8zezD9jcCbJGTU-22">
                    <mxGeometry y="30" width="103.7098759318961" height="24" as="geometry"/>
                </mxCell>
                <mxCell id="Sz9_Vn8zezD9jcCbJGTU-24" value="PK" style="shape=partialRectangle;top=0;right=0;bottom=0;part=1;resizeHeight=0;align=left;verticalAlign=top;spacingLeft=4;spacingRight=4;overflow=hidden;rotatable=0;points=[[0,0.5],[1,0.5]];portConstraint=eastwest;swimlaneFillColor=#ffffff;whiteSpace=wrap;fontSize=13;fontColor=#333333;fillColor=none;strokeOpacity=100;fillOpacity=100;spacing=0;strokeColor=#282c33;rounded=1;absoluteArcSize=1;arcSize=7.5;strokeWidth=0.8;" vertex="1" parent="Sz9_Vn8zezD9jcCbJGTU-22">
                    <mxGeometry x="103.7098759318961" y="30" width="91.2901240681039" height="24" as="geometry"/>
                </mxCell>
                <mxCell id="Sz9_Vn8zezD9jcCbJGTU-25" value="Movies Id" style="strokeColor=none;part=1;resizeHeight=0;align=left;verticalAlign=top;spacingLeft=4;spacingRight=4;overflow=hidden;rotatable=0;points=[[0,0.5],[1,0.5]];portConstraint=eastwest;swimlaneFillColor=#ffffff;whiteSpace=wrap;fontSize=13;fontColor=#333333;fillColor=none;strokeOpacity=100;fillOpacity=100;spacing=0;rounded=1;absoluteArcSize=1;arcSize=7.5;strokeWidth=0.8;" vertex="1" parent="Sz9_Vn8zezD9jcCbJGTU-22">
                    <mxGeometry y="54" width="103.7098759318961" height="24" as="geometry"/>
                </mxCell>
                <mxCell id="Sz9_Vn8zezD9jcCbJGTU-26" value="FK" style="shape=partialRectangle;top=0;right=0;bottom=0;part=1;resizeHeight=0;align=left;verticalAlign=top;spacingLeft=4;spacingRight=4;overflow=hidden;rotatable=0;points=[[0,0.5],[1,0.5]];portConstraint=eastwest;swimlaneFillColor=#ffffff;whiteSpace=wrap;fontSize=13;fontColor=#333333;fillColor=none;strokeOpacity=100;fillOpacity=100;spacing=0;strokeColor=#282c33;rounded=1;absoluteArcSize=1;arcSize=7.5;strokeWidth=0.8;" vertex="1" parent="Sz9_Vn8zezD9jcCbJGTU-22">
                    <mxGeometry x="103.7098759318961" y="54" width="91.2901240681039" height="24" as="geometry"/>
                </mxCell>
                <mxCell id="Sz9_Vn8zezD9jcCbJGTU-27" value="Movie" style="strokeColor=none;part=1;resizeHeight=0;align=left;verticalAlign=top;spacingLeft=4;spacingRight=4;overflow=hidden;rotatable=0;points=[[0,0.5],[1,0.5]];portConstraint=eastwest;swimlaneFillColor=#ffffff;whiteSpace=wrap;fontSize=13;fontColor=#333333;fillColor=none;strokeOpacity=100;fillOpacity=100;spacing=0;rounded=1;absoluteArcSize=1;arcSize=7.5;strokeWidth=0.8;" vertex="1" parent="Sz9_Vn8zezD9jcCbJGTU-22">
                    <mxGeometry y="78" width="103.7098759318961" height="24" as="geometry"/>
                </mxCell>
                <mxCell id="Sz9_Vn8zezD9jcCbJGTU-28" value="text" style="shape=partialRectangle;top=0;right=0;bottom=0;part=1;resizeHeight=0;align=left;verticalAlign=top;spacingLeft=4;spacingRight=4;overflow=hidden;rotatable=0;points=[[0,0.5],[1,0.5]];portConstraint=eastwest;swimlaneFillColor=#ffffff;whiteSpace=wrap;fontSize=13;fontColor=#333333;fillColor=none;strokeOpacity=100;fillOpacity=100;spacing=0;strokeColor=#282c33;rounded=1;absoluteArcSize=1;arcSize=7.5;strokeWidth=0.8;" vertex="1" parent="Sz9_Vn8zezD9jcCbJGTU-22">
                    <mxGeometry x="103.7098759318961" y="78" width="91.2901240681039" height="24" as="geometry"/>
                </mxCell>
                <mxCell id="Sz9_Vn8zezD9jcCbJGTU-29" value="" style="strokeColor=none;part=1;resizeHeight=0;align=left;verticalAlign=top;spacingLeft=4;spacingRight=4;overflow=hidden;rotatable=0;points=[[0,0.5],[1,0.5]];portConstraint=eastwest;swimlaneFillColor=#ffffff;whiteSpace=wrap;fontSize=13;fillColor=none;strokeOpacity=100;fillOpacity=100;spacing=0;rounded=1;absoluteArcSize=1;arcSize=7.5;strokeWidth=0.8;" vertex="1" parent="Sz9_Vn8zezD9jcCbJGTU-22">
                    <mxGeometry y="102" width="103.7098759318961" height="24" as="geometry"/>
                </mxCell>
                <mxCell id="Sz9_Vn8zezD9jcCbJGTU-30" value="" style="shape=partialRectangle;top=0;right=0;bottom=0;part=1;resizeHeight=0;align=left;verticalAlign=top;spacingLeft=4;spacingRight=4;overflow=hidden;rotatable=0;points=[[0,0.5],[1,0.5]];portConstraint=eastwest;swimlaneFillColor=#ffffff;whiteSpace=wrap;fontSize=13;fillColor=none;strokeOpacity=100;fillOpacity=100;spacing=0;strokeColor=#282c33;rounded=1;absoluteArcSize=1;arcSize=7.5;strokeWidth=0.8;" vertex="1" parent="Sz9_Vn8zezD9jcCbJGTU-22">
                    <mxGeometry x="103.7098759318961" y="102" width="91.2901240681039" height="24" as="geometry"/>
                </mxCell>
                <UserObject label="" lucidchartObjectId="Rx._Y8OJExfv" id="Sz9_Vn8zezD9jcCbJGTU-31">
                    <mxCell style="html=1;jettySize=18;whiteSpace=wrap;fontSize=13;strokeColor=#3a414a;strokeOpacity=100;strokeWidth=0.8;rounded=1;arcSize=24;edgeStyle=orthogonalEdgeStyle;startArrow=none;endArrow=block;endFill=1;exitX=1.002;exitY=0.656;exitPerimeter=0;entryX=-0.002;entryY=0.277;entryPerimeter=0;" edge="1" parent="1" source="Sz9_Vn8zezD9jcCbJGTU-2" target="Sz9_Vn8zezD9jcCbJGTU-57">
                        <mxGeometry width="100" height="100" relative="1" as="geometry">
                            <Array as="points"/>
                        </mxGeometry>
                    </mxCell>
                </UserObject>
                <UserObject label="" lucidchartObjectId="iy._VoZMCauO" id="Sz9_Vn8zezD9jcCbJGTU-32">
                    <mxCell style="html=1;jettySize=18;whiteSpace=wrap;fontSize=13;strokeColor=#3a414a;strokeOpacity=100;strokeWidth=0.8;rounded=1;arcSize=24;edgeStyle=orthogonalEdgeStyle;startArrow=none;endArrow=block;endFill=1;exitX=1.002;exitY=0.379;exitPerimeter=0;entryX=-0.002;entryY=0.779;entryPerimeter=0;" edge="1" parent="1" source="Sz9_Vn8zezD9jcCbJGTU-2" target="Sz9_Vn8zezD9jcCbJGTU-54">
                        <mxGeometry width="100" height="100" relative="1" as="geometry">
                            <Array as="points"/>
                        </mxGeometry>
                    </mxCell>
                </UserObject>
                <UserObject label="" lucidchartObjectId="Sz._60M84l6b" id="Sz9_Vn8zezD9jcCbJGTU-33">
                    <mxCell style="html=1;jettySize=18;whiteSpace=wrap;fontSize=13;strokeColor=#54c45e;strokeOpacity=100;strokeWidth=2.3;rounded=1;arcSize=24;edgeStyle=orthogonalEdgeStyle;startArrow=ERone;startSize=16;endArrow=ERmany;endSize=10;exitX=0.5;exitY=1.007;exitPerimeter=0;entryX=1.002;entryY=0.647;entryPerimeter=0;" edge="1" parent="1" source="Sz9_Vn8zezD9jcCbJGTU-57" target="Sz9_Vn8zezD9jcCbJGTU-15">
                        <mxGeometry width="100" height="100" relative="1" as="geometry">
                            <Array as="points">
                                <mxPoint x="750" y="390"/>
                                <mxPoint x="1470" y="390"/>
                                <mxPoint x="1470" y="-93"/>
                            </Array>
                        </mxGeometry>
                    </mxCell>
                </UserObject>
                <UserObject label="" lucidchartObjectId="zA._Ony1s0Xp" id="Sz9_Vn8zezD9jcCbJGTU-34">
                    <mxCell style="html=1;jettySize=18;whiteSpace=wrap;fontSize=13;strokeColor=#ffe342;strokeOpacity=100;strokeWidth=2.3;rounded=1;arcSize=24;edgeStyle=orthogonalEdgeStyle;startArrow=ERone;startSize=16;endArrow=ERmany;endSize=10;exitX=0.5;exitY=1.007;exitPerimeter=0;entryX=1.002;entryY=0.061;entryPerimeter=0;" edge="1" parent="1" source="Sz9_Vn8zezD9jcCbJGTU-54" target="Sz9_Vn8zezD9jcCbJGTU-35">
                        <mxGeometry width="100" height="100" relative="1" as="geometry">
                            <Array as="points"/>
                        </mxGeometry>
                    </mxCell>
                </UserObject>
                <mxCell id="Sz9_Vn8zezD9jcCbJGTU-35" value="Movies" style="html=1;overflow=block;blockSpacing=1;swimlane;resizeParent=1;resizeParentMax=0;resizeLast=0;collapsible=0;marginBottom=0;fontStyle=0;swimlaneFillColor=#ffffff;startSize=30;whiteSpace=wrap;fontSize=13;fontColor=#333333;align=left;fillColor=#e0e0e0;spacing=0;strokeColor=#282c33;strokeOpacity=100;fillOpacity=100;rounded=1;absoluteArcSize=1;arcSize=7.5;strokeWidth=0.8;" vertex="1" parent="1">
                    <mxGeometry x="1500" y="240" width="210" height="150" as="geometry"/>
                </mxCell>
                <mxCell id="Sz9_Vn8zezD9jcCbJGTU-36" value="Id" style="strokeColor=none;part=1;resizeHeight=0;align=left;verticalAlign=top;spacingLeft=4;spacingRight=4;overflow=hidden;rotatable=0;points=[[0,0.5],[1,0.5]];portConstraint=eastwest;swimlaneFillColor=#ffffff;whiteSpace=wrap;fontSize=13;fontColor=#333333;fillColor=none;strokeOpacity=100;fillOpacity=100;spacing=0;rounded=1;absoluteArcSize=1;arcSize=7.5;strokeWidth=0.8;" vertex="1" parent="Sz9_Vn8zezD9jcCbJGTU-35">
                    <mxGeometry y="30" width="30" height="24" as="geometry"/>
                </mxCell>
                <mxCell id="Sz9_Vn8zezD9jcCbJGTU-37" value="FK" style="shape=partialRectangle;top=0;right=0;bottom=0;part=1;resizeHeight=0;align=left;verticalAlign=top;spacingLeft=4;spacingRight=4;overflow=hidden;rotatable=0;points=[[0,0.5],[1,0.5]];portConstraint=eastwest;swimlaneFillColor=#ffffff;whiteSpace=wrap;fontSize=13;fontColor=#333333;fillColor=none;strokeOpacity=100;fillOpacity=100;spacing=0;strokeColor=#282c33;rounded=1;absoluteArcSize=1;arcSize=7.5;strokeWidth=0.8;" vertex="1" parent="Sz9_Vn8zezD9jcCbJGTU-35">
                    <mxGeometry x="30" y="30" width="180" height="24" as="geometry"/>
                </mxCell>
                <mxCell id="Sz9_Vn8zezD9jcCbJGTU-38" value="Title" style="strokeColor=none;part=1;resizeHeight=0;align=left;verticalAlign=top;spacingLeft=4;spacingRight=4;overflow=hidden;rotatable=0;points=[[0,0.5],[1,0.5]];portConstraint=eastwest;swimlaneFillColor=#ffffff;whiteSpace=wrap;fontSize=13;fontColor=#333333;fillColor=none;strokeOpacity=100;fillOpacity=100;spacing=0;rounded=1;absoluteArcSize=1;arcSize=7.5;strokeWidth=0.8;" vertex="1" parent="Sz9_Vn8zezD9jcCbJGTU-35">
                    <mxGeometry y="54" width="30" height="24" as="geometry"/>
                </mxCell>
                <mxCell id="Sz9_Vn8zezD9jcCbJGTU-39" value="text" style="shape=partialRectangle;top=0;right=0;bottom=0;part=1;resizeHeight=0;align=left;verticalAlign=top;spacingLeft=4;spacingRight=4;overflow=hidden;rotatable=0;points=[[0,0.5],[1,0.5]];portConstraint=eastwest;swimlaneFillColor=#ffffff;whiteSpace=wrap;fontSize=13;fontColor=#333333;fillColor=none;strokeOpacity=100;fillOpacity=100;spacing=0;strokeColor=#282c33;rounded=1;absoluteArcSize=1;arcSize=7.5;strokeWidth=0.8;" vertex="1" parent="Sz9_Vn8zezD9jcCbJGTU-35">
                    <mxGeometry x="30" y="54" width="180" height="24" as="geometry"/>
                </mxCell>
                <mxCell id="Sz9_Vn8zezD9jcCbJGTU-40" value="description" style="strokeColor=none;part=1;resizeHeight=0;align=left;verticalAlign=top;spacingLeft=4;spacingRight=4;overflow=hidden;rotatable=0;points=[[0,0.5],[1,0.5]];portConstraint=eastwest;swimlaneFillColor=#ffffff;whiteSpace=wrap;fontSize=13;fontColor=#333333;fillColor=none;strokeOpacity=100;fillOpacity=100;spacing=0;rounded=1;absoluteArcSize=1;arcSize=7.5;strokeWidth=0.8;" vertex="1" parent="Sz9_Vn8zezD9jcCbJGTU-35">
                    <mxGeometry y="78" width="30" height="15" as="geometry"/>
                </mxCell>
                <mxCell id="Sz9_Vn8zezD9jcCbJGTU-41" value="text" style="shape=partialRectangle;top=0;right=0;bottom=0;part=1;resizeHeight=0;align=left;verticalAlign=top;spacingLeft=4;spacingRight=4;overflow=hidden;rotatable=0;points=[[0,0.5],[1,0.5]];portConstraint=eastwest;swimlaneFillColor=#ffffff;whiteSpace=wrap;fontSize=13;fontColor=#333333;fillColor=none;strokeOpacity=100;fillOpacity=100;spacing=0;strokeColor=#282c33;rounded=1;absoluteArcSize=1;arcSize=7.5;strokeWidth=0.8;" vertex="1" parent="Sz9_Vn8zezD9jcCbJGTU-35">
                    <mxGeometry x="30" y="78" width="180" height="15" as="geometry"/>
                </mxCell>
                <mxCell id="Sz9_Vn8zezD9jcCbJGTU-42" value="ratings" style="strokeColor=none;part=1;resizeHeight=0;align=left;verticalAlign=top;spacingLeft=4;spacingRight=4;overflow=hidden;rotatable=0;points=[[0,0.5],[1,0.5]];portConstraint=eastwest;swimlaneFillColor=#ffffff;whiteSpace=wrap;fontSize=13;fontColor=#333333;fillColor=none;strokeOpacity=100;fillOpacity=100;spacing=0;rounded=1;absoluteArcSize=1;arcSize=7.5;strokeWidth=0.8;" vertex="1" parent="Sz9_Vn8zezD9jcCbJGTU-35">
                    <mxGeometry y="93" width="30" height="15" as="geometry"/>
                </mxCell>
                <mxCell id="Sz9_Vn8zezD9jcCbJGTU-43" value="int" style="shape=partialRectangle;top=0;right=0;bottom=0;part=1;resizeHeight=0;align=left;verticalAlign=top;spacingLeft=4;spacingRight=4;overflow=hidden;rotatable=0;points=[[0,0.5],[1,0.5]];portConstraint=eastwest;swimlaneFillColor=#ffffff;whiteSpace=wrap;fontSize=13;fontColor=#333333;fillColor=none;strokeOpacity=100;fillOpacity=100;spacing=0;strokeColor=#282c33;rounded=1;absoluteArcSize=1;arcSize=7.5;strokeWidth=0.8;" vertex="1" parent="Sz9_Vn8zezD9jcCbJGTU-35">
                    <mxGeometry x="30" y="93" width="180" height="15" as="geometry"/>
                </mxCell>
                <mxCell id="Sz9_Vn8zezD9jcCbJGTU-44" value="Genre" style="strokeColor=none;part=1;resizeHeight=0;align=left;verticalAlign=top;spacingLeft=4;spacingRight=4;overflow=hidden;rotatable=0;points=[[0,0.5],[1,0.5]];portConstraint=eastwest;swimlaneFillColor=#ffffff;whiteSpace=wrap;fontSize=13;fontColor=#333333;fillColor=none;strokeOpacity=100;fillOpacity=100;spacing=0;rounded=1;absoluteArcSize=1;arcSize=7.5;strokeWidth=0.8;" vertex="1" parent="Sz9_Vn8zezD9jcCbJGTU-35">
                    <mxGeometry y="108" width="30" height="15" as="geometry"/>
                </mxCell>
                <mxCell id="Sz9_Vn8zezD9jcCbJGTU-45" value="text" style="shape=partialRectangle;top=0;right=0;bottom=0;part=1;resizeHeight=0;align=left;verticalAlign=top;spacingLeft=4;spacingRight=4;overflow=hidden;rotatable=0;points=[[0,0.5],[1,0.5]];portConstraint=eastwest;swimlaneFillColor=#ffffff;whiteSpace=wrap;fontSize=13;fontColor=#333333;fillColor=none;strokeOpacity=100;fillOpacity=100;spacing=0;strokeColor=#282c33;rounded=1;absoluteArcSize=1;arcSize=7.5;strokeWidth=0.8;" vertex="1" parent="Sz9_Vn8zezD9jcCbJGTU-35">
                    <mxGeometry x="30" y="108" width="180" height="15" as="geometry"/>
                </mxCell>
                <mxCell id="Sz9_Vn8zezD9jcCbJGTU-46" value="Director" style="strokeColor=none;part=1;resizeHeight=0;align=left;verticalAlign=top;spacingLeft=4;spacingRight=4;overflow=hidden;rotatable=0;points=[[0,0.5],[1,0.5]];portConstraint=eastwest;swimlaneFillColor=#ffffff;whiteSpace=wrap;fontSize=13;fontColor=#333333;fillColor=none;strokeOpacity=100;fillOpacity=100;spacing=0;rounded=1;absoluteArcSize=1;arcSize=7.5;strokeWidth=0.8;" vertex="1" parent="Sz9_Vn8zezD9jcCbJGTU-35">
                    <mxGeometry y="123" width="30" as="geometry"/>
                </mxCell>
                <mxCell id="Sz9_Vn8zezD9jcCbJGTU-47" value="text" style="shape=partialRectangle;top=0;right=0;bottom=0;part=1;resizeHeight=0;align=left;verticalAlign=top;spacingLeft=4;spacingRight=4;overflow=hidden;rotatable=0;points=[[0,0.5],[1,0.5]];portConstraint=eastwest;swimlaneFillColor=#ffffff;whiteSpace=wrap;fontSize=13;fontColor=#333333;fillColor=none;strokeOpacity=100;fillOpacity=100;spacing=0;strokeColor=#282c33;rounded=1;absoluteArcSize=1;arcSize=7.5;strokeWidth=0.8;" vertex="1" parent="Sz9_Vn8zezD9jcCbJGTU-35">
                    <mxGeometry x="30" y="123" width="180" as="geometry"/>
                </mxCell>
                <mxCell id="Sz9_Vn8zezD9jcCbJGTU-48" value="Actor" style="strokeColor=none;part=1;resizeHeight=0;align=left;verticalAlign=top;spacingLeft=4;spacingRight=4;overflow=hidden;rotatable=0;points=[[0,0.5],[1,0.5]];portConstraint=eastwest;swimlaneFillColor=#ffffff;whiteSpace=wrap;fontSize=13;fontColor=#333333;fillColor=none;strokeOpacity=100;fillOpacity=100;spacing=0;rounded=1;absoluteArcSize=1;arcSize=7.5;strokeWidth=0.8;" vertex="1" parent="Sz9_Vn8zezD9jcCbJGTU-35">
                    <mxGeometry width="30" as="geometry"/>
                </mxCell>
                <mxCell id="Sz9_Vn8zezD9jcCbJGTU-49" value="text" style="shape=partialRectangle;top=0;right=0;bottom=0;part=1;resizeHeight=0;align=left;verticalAlign=top;spacingLeft=4;spacingRight=4;overflow=hidden;rotatable=0;points=[[0,0.5],[1,0.5]];portConstraint=eastwest;swimlaneFillColor=#ffffff;whiteSpace=wrap;fontSize=13;fontColor=#333333;fillColor=none;strokeOpacity=100;fillOpacity=100;spacing=0;strokeColor=#282c33;rounded=1;absoluteArcSize=1;arcSize=7.5;strokeWidth=0.8;" vertex="1" parent="Sz9_Vn8zezD9jcCbJGTU-35">
                    <mxGeometry x="30" width="180" as="geometry"/>
                </mxCell>
                <mxCell id="Sz9_Vn8zezD9jcCbJGTU-50" value="lanugage" style="strokeColor=none;part=1;resizeHeight=0;align=left;verticalAlign=top;spacingLeft=4;spacingRight=4;overflow=hidden;rotatable=0;points=[[0,0.5],[1,0.5]];portConstraint=eastwest;swimlaneFillColor=#ffffff;whiteSpace=wrap;fontSize=13;fontColor=#333333;fillColor=none;strokeOpacity=100;fillOpacity=100;spacing=0;rounded=1;absoluteArcSize=1;arcSize=7.5;strokeWidth=0.8;" vertex="1" parent="Sz9_Vn8zezD9jcCbJGTU-35">
                    <mxGeometry width="30" as="geometry"/>
                </mxCell>
                <mxCell id="Sz9_Vn8zezD9jcCbJGTU-51" value="text" style="shape=partialRectangle;top=0;right=0;bottom=0;part=1;resizeHeight=0;align=left;verticalAlign=top;spacingLeft=4;spacingRight=4;overflow=hidden;rotatable=0;points=[[0,0.5],[1,0.5]];portConstraint=eastwest;swimlaneFillColor=#ffffff;whiteSpace=wrap;fontSize=13;fontColor=#333333;fillColor=none;strokeOpacity=100;fillOpacity=100;spacing=0;strokeColor=#282c33;rounded=1;absoluteArcSize=1;arcSize=7.5;strokeWidth=0.8;" vertex="1" parent="Sz9_Vn8zezD9jcCbJGTU-35">
                    <mxGeometry x="30" width="180" as="geometry"/>
                </mxCell>
                <mxCell id="Sz9_Vn8zezD9jcCbJGTU-52" value="release date" style="strokeColor=none;part=1;resizeHeight=0;align=left;verticalAlign=top;spacingLeft=4;spacingRight=4;overflow=hidden;rotatable=0;points=[[0,0.5],[1,0.5]];portConstraint=eastwest;swimlaneFillColor=#ffffff;whiteSpace=wrap;fontSize=13;fontColor=#333333;fillColor=none;strokeOpacity=100;fillOpacity=100;spacing=0;rounded=1;absoluteArcSize=1;arcSize=7.5;strokeWidth=0.8;" vertex="1" parent="Sz9_Vn8zezD9jcCbJGTU-35">
                    <mxGeometry width="30" as="geometry"/>
                </mxCell>
                <mxCell id="Sz9_Vn8zezD9jcCbJGTU-53" value="int" style="shape=partialRectangle;top=0;right=0;bottom=0;part=1;resizeHeight=0;align=left;verticalAlign=top;spacingLeft=4;spacingRight=4;overflow=hidden;rotatable=0;points=[[0,0.5],[1,0.5]];portConstraint=eastwest;swimlaneFillColor=#ffffff;whiteSpace=wrap;fontSize=13;fontColor=#333333;fillColor=none;strokeOpacity=100;fillOpacity=100;spacing=0;strokeColor=#282c33;rounded=1;absoluteArcSize=1;arcSize=7.5;strokeWidth=0.8;" vertex="1" parent="Sz9_Vn8zezD9jcCbJGTU-35">
                    <mxGeometry x="30" width="180" as="geometry"/>
                </mxCell>
                <mxCell id="Sz9_Vn8zezD9jcCbJGTU-54" value="Logged User" style="html=1;overflow=block;blockSpacing=1;swimlane;resizeParent=1;resizeParentMax=0;resizeLast=0;collapsible=0;marginBottom=0;fontStyle=0;swimlaneFillColor=#fcfcca;startSize=30;whiteSpace=wrap;fontSize=13;fontColor=#333333;align=left;fillColor=#e0e0e0;spacing=0;strokeColor=#282c33;strokeOpacity=100;fillOpacity=100;rounded=1;absoluteArcSize=1;arcSize=7.5;strokeWidth=0.8;" vertex="1" parent="1">
                    <mxGeometry x="660" y="-57" width="180" height="54" as="geometry"/>
                </mxCell>
                <mxCell id="Sz9_Vn8zezD9jcCbJGTU-55" value="User Id" style="strokeColor=none;part=1;resizeHeight=0;align=left;verticalAlign=top;spacingLeft=4;spacingRight=4;overflow=hidden;rotatable=0;points=[[0,0.5],[1,0.5]];portConstraint=eastwest;swimlaneFillColor=#fcfcca;whiteSpace=wrap;fontSize=13;fontColor=#333333;fillColor=none;strokeOpacity=100;fillOpacity=100;spacing=0;rounded=1;absoluteArcSize=1;arcSize=7.5;strokeWidth=0.8;" vertex="1" parent="Sz9_Vn8zezD9jcCbJGTU-54">
                    <mxGeometry y="30" width="30" height="24" as="geometry"/>
                </mxCell>
                <mxCell id="Sz9_Vn8zezD9jcCbJGTU-56" value="FK" style="shape=partialRectangle;top=0;right=0;bottom=0;part=1;resizeHeight=0;align=left;verticalAlign=top;spacingLeft=4;spacingRight=4;overflow=hidden;rotatable=0;points=[[0,0.5],[1,0.5]];portConstraint=eastwest;swimlaneFillColor=#fcfcca;whiteSpace=wrap;fontSize=13;fontColor=#333333;fillColor=none;strokeOpacity=100;fillOpacity=100;spacing=0;strokeColor=#282c33;rounded=1;absoluteArcSize=1;arcSize=7.5;strokeWidth=0.8;" vertex="1" parent="Sz9_Vn8zezD9jcCbJGTU-54">
                    <mxGeometry x="30" y="30" width="150" height="24" as="geometry"/>
                </mxCell>
                <mxCell id="Sz9_Vn8zezD9jcCbJGTU-57" value="Admin" style="html=1;overflow=block;blockSpacing=1;swimlane;resizeParent=1;resizeParentMax=0;resizeLast=0;collapsible=0;marginBottom=0;fontStyle=0;swimlaneFillColor=#e3fae3;startSize=30;whiteSpace=wrap;fontSize=13;fontColor=#333333;align=left;fillColor=#e0e0e0;spacing=0;strokeColor=#282c33;strokeOpacity=100;fillOpacity=100;rounded=1;absoluteArcSize=1;arcSize=7.5;strokeWidth=0.8;" vertex="1" parent="1">
                    <mxGeometry x="660" y="180" width="180" height="54" as="geometry"/>
                </mxCell>
                <mxCell id="Sz9_Vn8zezD9jcCbJGTU-58" value="User Id" style="strokeColor=none;part=1;resizeHeight=0;align=left;verticalAlign=top;spacingLeft=4;spacingRight=4;overflow=hidden;rotatable=0;points=[[0,0.5],[1,0.5]];portConstraint=eastwest;swimlaneFillColor=#e3fae3;whiteSpace=wrap;fontSize=13;fontColor=#333333;fillColor=none;strokeOpacity=100;fillOpacity=100;spacing=0;rounded=1;absoluteArcSize=1;arcSize=7.5;strokeWidth=0.8;" vertex="1" parent="Sz9_Vn8zezD9jcCbJGTU-57">
                    <mxGeometry y="30" width="30" height="24" as="geometry"/>
                </mxCell>
                <mxCell id="Sz9_Vn8zezD9jcCbJGTU-59" value="FK" style="shape=partialRectangle;top=0;right=0;bottom=0;part=1;resizeHeight=0;align=left;verticalAlign=top;spacingLeft=4;spacingRight=4;overflow=hidden;rotatable=0;points=[[0,0.5],[1,0.5]];portConstraint=eastwest;swimlaneFillColor=#e3fae3;whiteSpace=wrap;fontSize=13;fontColor=#333333;fillColor=none;strokeOpacity=100;fillOpacity=100;spacing=0;strokeColor=#282c33;rounded=1;absoluteArcSize=1;arcSize=7.5;strokeWidth=0.8;" vertex="1" parent="Sz9_Vn8zezD9jcCbJGTU-57">
                    <mxGeometry x="30" y="30" width="150" height="24" as="geometry"/>
                </mxCell>
                <UserObject label="" lucidchartObjectId="V2o.32O2i9px" id="Sz9_Vn8zezD9jcCbJGTU-60">
                    <mxCell style="html=1;jettySize=18;whiteSpace=wrap;fontSize=13;strokeColor=#ffe342;strokeOpacity=100;strokeWidth=2.3;rounded=1;arcSize=24;edgeStyle=orthogonalEdgeStyle;startArrow=ERmany;startSize=10;endArrow=ERmany;endSize=10;exitX=1.002;exitY=0.277;exitPerimeter=0;entryX=-0.002;entryY=0.147;entryPerimeter=0;" edge="1" parent="1" source="Sz9_Vn8zezD9jcCbJGTU-54" target="Sz9_Vn8zezD9jcCbJGTU-15">
                        <mxGeometry width="100" height="100" relative="1" as="geometry">
                            <Array as="points"/>
                        </mxGeometry>
                    </mxCell>
                </UserObject>
                <UserObject label="" lucidchartObjectId="P5o.0MK2zhgJ" id="Sz9_Vn8zezD9jcCbJGTU-61">
                    <mxCell style="html=1;jettySize=18;whiteSpace=wrap;fontSize=13;strokeColor=#ffe342;strokeOpacity=100;strokeWidth=2.3;rounded=1;arcSize=24;edgeStyle=orthogonalEdgeStyle;startArrow=ERmandOne;startSize=10;endArrow=ERoneToMany;endSize=10;exitX=1.002;exitY=0.779;exitPerimeter=0;entryX=-0.002;entryY=0.118;entryPerimeter=0;" edge="1" parent="1" source="Sz9_Vn8zezD9jcCbJGTU-54" target="Sz9_Vn8zezD9jcCbJGTU-22">
                        <mxGeometry width="100" height="100" relative="1" as="geometry">
                            <Array as="points"/>
                        </mxGeometry>
                    </mxCell>
                </UserObject>
                <UserObject label="" lucidchartObjectId="75o.xE5CVGmb" id="Sz9_Vn8zezD9jcCbJGTU-62">
                    <mxCell style="html=1;jettySize=18;whiteSpace=wrap;fontSize=13;strokeColor=#54c45e;strokeOpacity=100;strokeWidth=2.3;rounded=1;arcSize=24;edgeStyle=orthogonalEdgeStyle;startArrow=ERone;startSize=16;endArrow=ERmany;endSize=10;exitX=1.002;exitY=0.277;exitPerimeter=0;entryX=-0.002;entryY=0.524;entryPerimeter=0;" edge="1" parent="1" source="Sz9_Vn8zezD9jcCbJGTU-57" target="Sz9_Vn8zezD9jcCbJGTU-22">
                        <mxGeometry width="100" height="100" relative="1" as="geometry">
                            <Array as="points"/>
                        </mxGeometry>
                    </mxCell>
                </UserObject>
                <UserObject label="" lucidchartObjectId="o-4.5gb7xK4S" id="Sz9_Vn8zezD9jcCbJGTU-63">
                    <mxCell style="html=1;jettySize=18;whiteSpace=wrap;fontSize=13;strokeColor=#e81313;strokeOpacity=100;strokeWidth=2.3;rounded=1;arcSize=24;edgeStyle=orthogonalEdgeStyle;startArrow=ERoneToMany;startSize=10;endArrow=ERmandOne;endSize=10;exitX=0.5;exitY=1.004;exitPerimeter=0;entryX=1.002;entryY=0.171;entryPerimeter=0;" edge="1" parent="1" source="Sz9_Vn8zezD9jcCbJGTU-15" target="Sz9_Vn8zezD9jcCbJGTU-35">
                        <mxGeometry width="100" height="100" relative="1" as="geometry">
                            <Array as="points">
                                <mxPoint x="1335" y="-26"/>
                                <mxPoint x="1282" y="-26"/>
                                <mxPoint x="1282" y="23"/>
                                <mxPoint x="1440" y="23"/>
                                <mxPoint x="1440" y="585"/>
                                <mxPoint x="1740" y="585"/>
                                <mxPoint x="1740" y="282"/>
                            </Array>
                        </mxGeometry>
                    </mxCell>
                </UserObject>
                <UserObject label="" lucidchartObjectId="t_4.TxRfWeU4" id="Sz9_Vn8zezD9jcCbJGTU-64">
                    <mxCell style="html=1;jettySize=18;whiteSpace=wrap;fontSize=13;strokeColor=#e81313;strokeOpacity=100;strokeWidth=2.3;rounded=1;arcSize=24;edgeStyle=orthogonalEdgeStyle;startArrow=ERmany;startSize=10;endArrow=ERmany;endSize=10;exitX=1.002;exitY=0.524;exitPerimeter=0;entryX=0.596;entryY=-0.002;entryPerimeter=0;" edge="1" parent="1" source="Sz9_Vn8zezD9jcCbJGTU-22" target="Sz9_Vn8zezD9jcCbJGTU-35">
                        <mxGeometry width="100" height="100" relative="1" as="geometry">
                            <Array as="points">
                                <mxPoint x="1625" y="141"/>
                            </Array>
                        </mxGeometry>
                    </mxCell>
                </UserObject>
                <mxCell id="Sz9_Vn8zezD9jcCbJGTU-65" value="Genre" style="html=1;overflow=block;blockSpacing=1;swimlane;resizeParent=1;resizeParentMax=0;resizeLast=0;collapsible=0;marginBottom=0;fontStyle=0;swimlaneFillColor=#ffffff;startSize=30;whiteSpace=wrap;fontSize=13;fontColor=#333333;align=left;fillColor=#e0e0e0;spacing=0;strokeColor=#282c33;strokeOpacity=100;fillOpacity=100;rounded=1;absoluteArcSize=1;arcSize=7.5;strokeWidth=0.8;" vertex="1" parent="1">
                    <mxGeometry x="1770" y="75" width="210" height="78" as="geometry"/>
                </mxCell>
                <mxCell id="Sz9_Vn8zezD9jcCbJGTU-66" value="Id" style="strokeColor=none;part=1;resizeHeight=0;align=left;verticalAlign=top;spacingLeft=4;spacingRight=4;overflow=hidden;rotatable=0;points=[[0,0.5],[1,0.5]];portConstraint=eastwest;swimlaneFillColor=#ffffff;whiteSpace=wrap;fontSize=13;fontColor=#333333;fillColor=none;strokeOpacity=100;fillOpacity=100;spacing=0;rounded=1;absoluteArcSize=1;arcSize=7.5;strokeWidth=0.8;" vertex="1" parent="Sz9_Vn8zezD9jcCbJGTU-65">
                    <mxGeometry y="30" width="30" height="24" as="geometry"/>
                </mxCell>
                <mxCell id="Sz9_Vn8zezD9jcCbJGTU-67" value="FK" style="shape=partialRectangle;top=0;right=0;bottom=0;part=1;resizeHeight=0;align=left;verticalAlign=top;spacingLeft=4;spacingRight=4;overflow=hidden;rotatable=0;points=[[0,0.5],[1,0.5]];portConstraint=eastwest;swimlaneFillColor=#ffffff;whiteSpace=wrap;fontSize=13;fontColor=#333333;fillColor=none;strokeOpacity=100;fillOpacity=100;spacing=0;strokeColor=#282c33;rounded=1;absoluteArcSize=1;arcSize=7.5;strokeWidth=0.8;" vertex="1" parent="Sz9_Vn8zezD9jcCbJGTU-65">
                    <mxGeometry x="30" y="30" width="180" height="24" as="geometry"/>
                </mxCell>
                <mxCell id="Sz9_Vn8zezD9jcCbJGTU-68" value="name" style="strokeColor=none;part=1;resizeHeight=0;align=left;verticalAlign=top;spacingLeft=4;spacingRight=4;overflow=hidden;rotatable=0;points=[[0,0.5],[1,0.5]];portConstraint=eastwest;swimlaneFillColor=#ffffff;whiteSpace=wrap;fontSize=13;fontColor=#333333;fillColor=none;strokeOpacity=100;fillOpacity=100;spacing=0;rounded=1;absoluteArcSize=1;arcSize=7.5;strokeWidth=0.8;" vertex="1" parent="Sz9_Vn8zezD9jcCbJGTU-65">
                    <mxGeometry y="54" width="30" height="24" as="geometry"/>
                </mxCell>
                <mxCell id="Sz9_Vn8zezD9jcCbJGTU-69" value="text" style="shape=partialRectangle;top=0;right=0;bottom=0;part=1;resizeHeight=0;align=left;verticalAlign=top;spacingLeft=4;spacingRight=4;overflow=hidden;rotatable=0;points=[[0,0.5],[1,0.5]];portConstraint=eastwest;swimlaneFillColor=#ffffff;whiteSpace=wrap;fontSize=13;fontColor=#333333;fillColor=none;strokeOpacity=100;fillOpacity=100;spacing=0;strokeColor=#282c33;rounded=1;absoluteArcSize=1;arcSize=7.5;strokeWidth=0.8;" vertex="1" parent="Sz9_Vn8zezD9jcCbJGTU-65">
                    <mxGeometry x="30" y="54" width="180" height="24" as="geometry"/>
                </mxCell>
                <UserObject label="" lucidchartObjectId="Ay5.6etvFNqX" id="Sz9_Vn8zezD9jcCbJGTU-70">
                    <mxCell style="html=1;jettySize=18;whiteSpace=wrap;fontSize=13;strokeColor=#e81313;strokeOpacity=100;strokeWidth=2.3;rounded=1;arcSize=24;edgeStyle=orthogonalEdgeStyle;startArrow=ERmany;startSize=10;endArrow=ERmany;endSize=10;exitX=-0.002;exitY=0.539;exitPerimeter=0;entryX=1.002;entryY=0.463;entryPerimeter=0;" edge="1" parent="1" source="Sz9_Vn8zezD9jcCbJGTU-83" target="Sz9_Vn8zezD9jcCbJGTU-35">
                        <mxGeometry width="100" height="100" relative="1" as="geometry">
                            <Array as="points"/>
                        </mxGeometry>
                    </mxCell>
                </UserObject>
                <mxCell id="Sz9_Vn8zezD9jcCbJGTU-71" value="Movie actor" style="html=1;overflow=block;blockSpacing=1;swimlane;resizeParent=1;resizeParentMax=0;resizeLast=0;collapsible=0;marginBottom=0;fontStyle=0;swimlaneFillColor=#ffffff;startSize=30;whiteSpace=wrap;fontSize=13;fontColor=#333333;align=left;fillColor=#e0e0e0;spacing=0;strokeColor=#282c33;strokeOpacity=100;fillOpacity=100;rounded=1;absoluteArcSize=1;arcSize=7.5;strokeWidth=0.8;" vertex="1" parent="1">
                    <mxGeometry x="1830" y="385" width="210" height="78" as="geometry"/>
                </mxCell>
                <mxCell id="Sz9_Vn8zezD9jcCbJGTU-72" value="movieid" style="strokeColor=none;part=1;resizeHeight=0;align=left;verticalAlign=top;spacingLeft=4;spacingRight=4;overflow=hidden;rotatable=0;points=[[0,0.5],[1,0.5]];portConstraint=eastwest;swimlaneFillColor=#ffffff;whiteSpace=wrap;fontSize=13;fontColor=#333333;fillColor=none;strokeOpacity=100;fillOpacity=100;spacing=0;rounded=1;absoluteArcSize=1;arcSize=7.5;strokeWidth=0.8;" vertex="1" parent="Sz9_Vn8zezD9jcCbJGTU-71">
                    <mxGeometry y="30" width="30" height="24" as="geometry"/>
                </mxCell>
                <mxCell id="Sz9_Vn8zezD9jcCbJGTU-73" value="FK" style="shape=partialRectangle;top=0;right=0;bottom=0;part=1;resizeHeight=0;align=left;verticalAlign=top;spacingLeft=4;spacingRight=4;overflow=hidden;rotatable=0;points=[[0,0.5],[1,0.5]];portConstraint=eastwest;swimlaneFillColor=#ffffff;whiteSpace=wrap;fontSize=13;fontColor=#333333;fillColor=none;strokeOpacity=100;fillOpacity=100;spacing=0;strokeColor=#282c33;rounded=1;absoluteArcSize=1;arcSize=7.5;strokeWidth=0.8;" vertex="1" parent="Sz9_Vn8zezD9jcCbJGTU-71">
                    <mxGeometry x="30" y="30" width="180" height="24" as="geometry"/>
                </mxCell>
                <mxCell id="Sz9_Vn8zezD9jcCbJGTU-74" value="actorid" style="strokeColor=none;part=1;resizeHeight=0;align=left;verticalAlign=top;spacingLeft=4;spacingRight=4;overflow=hidden;rotatable=0;points=[[0,0.5],[1,0.5]];portConstraint=eastwest;swimlaneFillColor=#ffffff;whiteSpace=wrap;fontSize=13;fontColor=#333333;fillColor=none;strokeOpacity=100;fillOpacity=100;spacing=0;rounded=1;absoluteArcSize=1;arcSize=7.5;strokeWidth=0.8;" vertex="1" parent="Sz9_Vn8zezD9jcCbJGTU-71">
                    <mxGeometry y="54" width="30" height="24" as="geometry"/>
                </mxCell>
                <mxCell id="Sz9_Vn8zezD9jcCbJGTU-75" value="FK" style="shape=partialRectangle;top=0;right=0;bottom=0;part=1;resizeHeight=0;align=left;verticalAlign=top;spacingLeft=4;spacingRight=4;overflow=hidden;rotatable=0;points=[[0,0.5],[1,0.5]];portConstraint=eastwest;swimlaneFillColor=#ffffff;whiteSpace=wrap;fontSize=13;fontColor=#333333;fillColor=none;strokeOpacity=100;fillOpacity=100;spacing=0;strokeColor=#282c33;rounded=1;absoluteArcSize=1;arcSize=7.5;strokeWidth=0.8;" vertex="1" parent="Sz9_Vn8zezD9jcCbJGTU-71">
                    <mxGeometry x="30" y="54" width="180" height="24" as="geometry"/>
                </mxCell>
                <mxCell id="Sz9_Vn8zezD9jcCbJGTU-76" value="Director" style="html=1;overflow=block;blockSpacing=1;swimlane;resizeParent=1;resizeParentMax=0;resizeLast=0;collapsible=0;marginBottom=0;fontStyle=0;swimlaneFillColor=#ffffff;startSize=30;whiteSpace=wrap;fontSize=13;fontColor=#333333;align=left;fillColor=#e0e0e0;spacing=0;strokeColor=#282c33;strokeOpacity=100;fillOpacity=100;rounded=1;absoluteArcSize=1;arcSize=7.5;strokeWidth=0.8;" vertex="1" parent="1">
                    <mxGeometry x="1845" y="544" width="210" height="78" as="geometry"/>
                </mxCell>
                <mxCell id="Sz9_Vn8zezD9jcCbJGTU-77" value="Id" style="strokeColor=none;part=1;resizeHeight=0;align=left;verticalAlign=top;spacingLeft=4;spacingRight=4;overflow=hidden;rotatable=0;points=[[0,0.5],[1,0.5]];portConstraint=eastwest;swimlaneFillColor=#ffffff;whiteSpace=wrap;fontSize=13;fontColor=#333333;fillColor=none;strokeOpacity=100;fillOpacity=100;spacing=0;rounded=1;absoluteArcSize=1;arcSize=7.5;strokeWidth=0.8;" vertex="1" parent="Sz9_Vn8zezD9jcCbJGTU-76">
                    <mxGeometry y="30" width="30" height="24" as="geometry"/>
                </mxCell>
                <mxCell id="Sz9_Vn8zezD9jcCbJGTU-78" value="FK" style="shape=partialRectangle;top=0;right=0;bottom=0;part=1;resizeHeight=0;align=left;verticalAlign=top;spacingLeft=4;spacingRight=4;overflow=hidden;rotatable=0;points=[[0,0.5],[1,0.5]];portConstraint=eastwest;swimlaneFillColor=#ffffff;whiteSpace=wrap;fontSize=13;fontColor=#333333;fillColor=none;strokeOpacity=100;fillOpacity=100;spacing=0;strokeColor=#282c33;rounded=1;absoluteArcSize=1;arcSize=7.5;strokeWidth=0.8;" vertex="1" parent="Sz9_Vn8zezD9jcCbJGTU-76">
                    <mxGeometry x="30" y="30" width="180" height="24" as="geometry"/>
                </mxCell>
                <mxCell id="Sz9_Vn8zezD9jcCbJGTU-79" value="name" style="strokeColor=none;part=1;resizeHeight=0;align=left;verticalAlign=top;spacingLeft=4;spacingRight=4;overflow=hidden;rotatable=0;points=[[0,0.5],[1,0.5]];portConstraint=eastwest;swimlaneFillColor=#ffffff;whiteSpace=wrap;fontSize=13;fontColor=#333333;fillColor=none;strokeOpacity=100;fillOpacity=100;spacing=0;rounded=1;absoluteArcSize=1;arcSize=7.5;strokeWidth=0.8;" vertex="1" parent="Sz9_Vn8zezD9jcCbJGTU-76">
                    <mxGeometry y="54" width="30" height="24" as="geometry"/>
                </mxCell>
                <mxCell id="Sz9_Vn8zezD9jcCbJGTU-80" value="text" style="shape=partialRectangle;top=0;right=0;bottom=0;part=1;resizeHeight=0;align=left;verticalAlign=top;spacingLeft=4;spacingRight=4;overflow=hidden;rotatable=0;points=[[0,0.5],[1,0.5]];portConstraint=eastwest;swimlaneFillColor=#ffffff;whiteSpace=wrap;fontSize=13;fontColor=#333333;fillColor=none;strokeOpacity=100;fillOpacity=100;spacing=0;strokeColor=#282c33;rounded=1;absoluteArcSize=1;arcSize=7.5;strokeWidth=0.8;" vertex="1" parent="Sz9_Vn8zezD9jcCbJGTU-76">
                    <mxGeometry x="30" y="54" width="180" height="24" as="geometry"/>
                </mxCell>
                <UserObject label="" lucidchartObjectId="QA5.I4S5jWDo" id="Sz9_Vn8zezD9jcCbJGTU-81">
                    <mxCell style="html=1;jettySize=18;whiteSpace=wrap;fontSize=13;strokeColor=#e81313;strokeOpacity=100;strokeWidth=2.3;rounded=1;arcSize=24;edgeStyle=orthogonalEdgeStyle;startArrow=ERone;startSize=16;endArrow=ERmany;endSize=10;exitX=1.002;exitY=0.561;exitPerimeter=0;entryX=-0.002;entryY=0.538;entryPerimeter=0;" edge="1" parent="1" source="Sz9_Vn8zezD9jcCbJGTU-35" target="Sz9_Vn8zezD9jcCbJGTU-71">
                        <mxGeometry width="100" height="100" relative="1" as="geometry">
                            <Array as="points"/>
                        </mxGeometry>
                    </mxCell>
                </UserObject>
                <UserObject label="" lucidchartObjectId="0A5.KF4-dCsw" id="Sz9_Vn8zezD9jcCbJGTU-82">
                    <mxCell style="html=1;jettySize=18;whiteSpace=wrap;fontSize=13;strokeColor=#e81313;strokeOpacity=100;strokeWidth=2.3;rounded=1;arcSize=24;edgeStyle=orthogonalEdgeStyle;startArrow=ERone;startSize=16;endArrow=ERmany;endSize=10;exitX=1.002;exitY=0.659;exitPerimeter=0;entryX=-0.002;entryY=0.539;entryPerimeter=0;" edge="1" parent="1" source="Sz9_Vn8zezD9jcCbJGTU-35" target="Sz9_Vn8zezD9jcCbJGTU-76">
                        <mxGeometry width="100" height="100" relative="1" as="geometry">
                            <Array as="points"/>
                        </mxGeometry>
                    </mxCell>
                </UserObject>
                <mxCell id="Sz9_Vn8zezD9jcCbJGTU-83" value="Movie genre" style="html=1;overflow=block;blockSpacing=1;swimlane;resizeParent=1;resizeParentMax=0;resizeLast=0;collapsible=0;marginBottom=0;fontStyle=0;swimlaneFillColor=#ffffff;startSize=30;whiteSpace=wrap;fontSize=13;fontColor=#333333;align=left;fillColor=#e0e0e0;spacing=0;strokeColor=#282c33;strokeOpacity=100;fillOpacity=100;rounded=1;absoluteArcSize=1;arcSize=7.5;strokeWidth=0.8;" vertex="1" parent="1">
                    <mxGeometry x="1860" y="225" width="210" height="78" as="geometry"/>
                </mxCell>
                <mxCell id="Sz9_Vn8zezD9jcCbJGTU-84" value="genre id" style="strokeColor=none;part=1;resizeHeight=0;align=left;verticalAlign=top;spacingLeft=4;spacingRight=4;overflow=hidden;rotatable=0;points=[[0,0.5],[1,0.5]];portConstraint=eastwest;swimlaneFillColor=#ffffff;whiteSpace=wrap;fontSize=13;fontColor=#333333;fillColor=none;strokeOpacity=100;fillOpacity=100;spacing=0;rounded=1;absoluteArcSize=1;arcSize=7.5;strokeWidth=0.8;" vertex="1" parent="Sz9_Vn8zezD9jcCbJGTU-83">
                    <mxGeometry y="30" width="30" height="24" as="geometry"/>
                </mxCell>
                <mxCell id="Sz9_Vn8zezD9jcCbJGTU-85" value="id FK" style="shape=partialRectangle;top=0;right=0;bottom=0;part=1;resizeHeight=0;align=left;verticalAlign=top;spacingLeft=4;spacingRight=4;overflow=hidden;rotatable=0;points=[[0,0.5],[1,0.5]];portConstraint=eastwest;swimlaneFillColor=#ffffff;whiteSpace=wrap;fontSize=13;fontColor=#333333;fillColor=none;strokeOpacity=100;fillOpacity=100;spacing=0;strokeColor=#282c33;rounded=1;absoluteArcSize=1;arcSize=7.5;strokeWidth=0.8;" vertex="1" parent="Sz9_Vn8zezD9jcCbJGTU-83">
                    <mxGeometry x="30" y="30" width="180" height="24" as="geometry"/>
                </mxCell>
                <mxCell id="Sz9_Vn8zezD9jcCbJGTU-86" value="movie id" style="strokeColor=none;part=1;resizeHeight=0;align=left;verticalAlign=top;spacingLeft=4;spacingRight=4;overflow=hidden;rotatable=0;points=[[0,0.5],[1,0.5]];portConstraint=eastwest;swimlaneFillColor=#ffffff;whiteSpace=wrap;fontSize=13;fontColor=#333333;fillColor=none;strokeOpacity=100;fillOpacity=100;spacing=0;rounded=1;absoluteArcSize=1;arcSize=7.5;strokeWidth=0.8;" vertex="1" parent="Sz9_Vn8zezD9jcCbJGTU-83">
                    <mxGeometry y="54" width="30" height="24" as="geometry"/>
                </mxCell>
                <mxCell id="Sz9_Vn8zezD9jcCbJGTU-87" value="id FK" style="shape=partialRectangle;top=0;right=0;bottom=0;part=1;resizeHeight=0;align=left;verticalAlign=top;spacingLeft=4;spacingRight=4;overflow=hidden;rotatable=0;points=[[0,0.5],[1,0.5]];portConstraint=eastwest;swimlaneFillColor=#ffffff;whiteSpace=wrap;fontSize=13;fontColor=#333333;fillColor=none;strokeOpacity=100;fillOpacity=100;spacing=0;strokeColor=#282c33;rounded=1;absoluteArcSize=1;arcSize=7.5;strokeWidth=0.8;" vertex="1" parent="Sz9_Vn8zezD9jcCbJGTU-83">
                    <mxGeometry x="30" y="54" width="180" height="24" as="geometry"/>
                </mxCell>
                <UserObject label="" lucidchartObjectId="hU5.rJAKA2W9" id="Sz9_Vn8zezD9jcCbJGTU-88">
                    <mxCell style="html=1;jettySize=18;whiteSpace=wrap;fontSize=13;strokeColor=#3a414a;strokeOpacity=100;strokeWidth=0.8;rounded=1;arcSize=24;edgeStyle=orthogonalEdgeStyle;startArrow=ERone;startSize=16;endArrow=ERmany;endSize=10;exitX=0.5;exitY=1.005;exitPerimeter=0;entryX=0.466;entryY=-0.005;entryPerimeter=0;" edge="1" parent="1" source="Sz9_Vn8zezD9jcCbJGTU-65" target="Sz9_Vn8zezD9jcCbJGTU-83">
                        <mxGeometry width="100" height="100" relative="1" as="geometry">
                            <Array as="points"/>
                        </mxGeometry>
                    </mxCell>
                </UserObject>
                <mxCell id="Sz9_Vn8zezD9jcCbJGTU-89" value="Actors" style="html=1;overflow=block;blockSpacing=1;swimlane;resizeParent=1;resizeParentMax=0;resizeLast=0;collapsible=0;marginBottom=0;fontStyle=0;swimlaneFillColor=#ffffff;startSize=30;whiteSpace=wrap;fontSize=13;fontColor=#333333;align=left;fillColor=#e0e0e0;spacing=0;strokeColor=#282c33;strokeOpacity=100;fillOpacity=100;rounded=1;absoluteArcSize=1;arcSize=7.5;strokeWidth=0.8;" vertex="1" parent="1">
                    <mxGeometry x="2102" y="422" width="210" height="78" as="geometry"/>
                </mxCell>
                <mxCell id="Sz9_Vn8zezD9jcCbJGTU-90" value="Id" style="strokeColor=none;part=1;resizeHeight=0;align=left;verticalAlign=top;spacingLeft=4;spacingRight=4;overflow=hidden;rotatable=0;points=[[0,0.5],[1,0.5]];portConstraint=eastwest;swimlaneFillColor=#ffffff;whiteSpace=wrap;fontSize=13;fontColor=#333333;fillColor=none;strokeOpacity=100;fillOpacity=100;spacing=0;rounded=1;absoluteArcSize=1;arcSize=7.5;strokeWidth=0.8;" vertex="1" parent="Sz9_Vn8zezD9jcCbJGTU-89">
                    <mxGeometry y="30" width="30" height="24" as="geometry"/>
                </mxCell>
                <mxCell id="Sz9_Vn8zezD9jcCbJGTU-91" value="FK" style="shape=partialRectangle;top=0;right=0;bottom=0;part=1;resizeHeight=0;align=left;verticalAlign=top;spacingLeft=4;spacingRight=4;overflow=hidden;rotatable=0;points=[[0,0.5],[1,0.5]];portConstraint=eastwest;swimlaneFillColor=#ffffff;whiteSpace=wrap;fontSize=13;fontColor=#333333;fillColor=none;strokeOpacity=100;fillOpacity=100;spacing=0;strokeColor=#282c33;rounded=1;absoluteArcSize=1;arcSize=7.5;strokeWidth=0.8;" vertex="1" parent="Sz9_Vn8zezD9jcCbJGTU-89">
                    <mxGeometry x="30" y="30" width="180" height="24" as="geometry"/>
                </mxCell>
                <mxCell id="Sz9_Vn8zezD9jcCbJGTU-92" value="name" style="strokeColor=none;part=1;resizeHeight=0;align=left;verticalAlign=top;spacingLeft=4;spacingRight=4;overflow=hidden;rotatable=0;points=[[0,0.5],[1,0.5]];portConstraint=eastwest;swimlaneFillColor=#ffffff;whiteSpace=wrap;fontSize=13;fontColor=#333333;fillColor=none;strokeOpacity=100;fillOpacity=100;spacing=0;rounded=1;absoluteArcSize=1;arcSize=7.5;strokeWidth=0.8;" vertex="1" parent="Sz9_Vn8zezD9jcCbJGTU-89">
                    <mxGeometry y="54" width="30" height="24" as="geometry"/>
                </mxCell>
                <mxCell id="Sz9_Vn8zezD9jcCbJGTU-93" value="text" style="shape=partialRectangle;top=0;right=0;bottom=0;part=1;resizeHeight=0;align=left;verticalAlign=top;spacingLeft=4;spacingRight=4;overflow=hidden;rotatable=0;points=[[0,0.5],[1,0.5]];portConstraint=eastwest;swimlaneFillColor=#ffffff;whiteSpace=wrap;fontSize=13;fontColor=#333333;fillColor=none;strokeOpacity=100;fillOpacity=100;spacing=0;strokeColor=#282c33;rounded=1;absoluteArcSize=1;arcSize=7.5;strokeWidth=0.8;" vertex="1" parent="Sz9_Vn8zezD9jcCbJGTU-89">
                    <mxGeometry x="30" y="54" width="180" height="24" as="geometry"/>
                </mxCell>
                <UserObject label="" lucidchartObjectId="JY5.IqTcwDfU" id="Sz9_Vn8zezD9jcCbJGTU-94">
                    <mxCell style="html=1;jettySize=18;whiteSpace=wrap;fontSize=13;strokeColor=#3a414a;strokeOpacity=100;strokeWidth=0.8;rounded=1;arcSize=24;edgeStyle=orthogonalEdgeStyle;startArrow=ERone;startSize=16;endArrow=ERmany;endSize=10;exitX=0.5;exitY=-0.005;exitPerimeter=0;entryX=0.5;entryY=-0.005;entryPerimeter=0;" edge="1" parent="1" source="Sz9_Vn8zezD9jcCbJGTU-89" target="Sz9_Vn8zezD9jcCbJGTU-71">
                        <mxGeometry width="100" height="100" relative="1" as="geometry">
                            <Array as="points"/>
                        </mxGeometry>
                    </mxCell>
                </UserObject>
            </root>
        </mxGraphModel>
    </diagram>
    <diagram id="n5QXJKTfx4Yllc6DY_II" name="FigJam(shared link)">
        <mxGraphModel dx="547" dy="292" grid="1" gridSize="10" guides="1" tooltips="1" connect="1" arrows="1" fold="1" page="0" pageScale="1" pageWidth="850" pageHeight="1100" math="0" shadow="0">
            <root>
                <mxCell id="0"/>
                <mxCell id="1" parent="0"/>
            </root>
        </mxGraphModel>
    </diagram>
</mxfile>